<svg xmlns="http://www.w3.org/2000/svg" viewBox="0 0 407.2 100" style="enable-background:new 0 0 407.2 100" xml:space="preserve"><path d="M168 45.9c-.1.3-.1.8-.1 1.3v16.5c0 1.6-.7 2.7-2.2 3.2-2.2.8-3.9-1.6-3.9-3.5.1-8.6 0-17.3-.1-26-.1-2.5.6-4.4 3.4-4.3.2 0 .4.1.6.2 1.2 1 2.1 1.9 2.6 2.5 4.9 5.8 9.9 11.5 14.8 17.3.5.6 1 1.1 1.6 1.6.2.1.4.1.6 0 .1-.1.1-.2.1-.2.1-5.7.1-11.8 0-18.3-.1-4 5.9-4 5.9.1 0 8.7 0 18 .1 27.8 0 2.9-3.4 3.6-5.1 1.5-5.6-6.7-11.3-13.4-17.2-19.8-.2-.2-.6-.2-.8 0-.2-.1-.3 0-.3.1zm-18.7 2.8c-.2-.1-.2-.2-.1-.4 1.6-1.9 2.3-3.9 2.3-6 0-5.9-4.2-8.7-9.9-9-3-.1-5.8-.1-8.2.1-2.1.2-3.4 1.1-3.4 3.3.1 8.7.1 17.4 0 26.1 0 3 1.4 4.1 4.2 4 3.6-.1 6.7-.2 9.5-.1 4.8.1 9.1-2.2 10.1-7.2 1-4.7-.6-8.3-4.5-10.8zm-12.8-9.9h5.4c2.1 0 3.7 1.5 3.7 3.4v1c0 1.9-1.7 3.4-3.7 3.4h-5.4c-.3 0-.5-.2-.5-.5v-6.9c0-.2.2-.4.5-.4zm11.6 17.9c0 2.3-2 4.3-4.4 4.3h-7.2c-.2 0-.5-.2-.5-.4l-.1-8.1c0-.2.2-.5.4-.5h7.2c1.2 0 2.4.5 3.2 1.2.8.8 1.3 1.8 1.3 3l.1.5zm59.7-9.9c4.2.1 7.8 0 10.5-.1 1.6-.1 3.1.3 3.6 1.9.3 1 .2 1.8-.5 2.6-.8 1-2.1 1.1-3.3 1.1h-10.4c-.2 0-.4.2-.4.4l-.1 7.7c0 .3.2.5.5.5h13.2c3.9 0 3.7 5.8-.2 5.7-5.6-.1-10.5-.1-14.8 0-2.8.1-4.6-.5-4.6-3.7.1-6.2.1-14.8.1-25.7 0-1.2.2-2.1.5-2.6.6-.9 1.5-1.3 2.7-1.3h15c1.8 0 3 .3 3.7 1.9.2.6.2 1.1-.1 1.7-.9 2-2.5 2.3-4.6 2.1-3.6-.2-7.3-.2-10.9-.1-.2 0-.4.1-.3.4l.1 7.1c-.1.3 0 .4.3.4zm26.8-13.6h.1c1.6 0 2.9 1.3 2.9 2.9v28c0 1.6-1.3 2.9-2.9 2.9h-.1c-1.6 0-2.9-1.3-2.9-2.9V36c.1-1.6 1.4-2.8 2.9-2.8zM294 62.6c-4.4-9-8.5-17.9-12.3-26.5-.4-.8-.9-1.6-1.7-2.3-1.8-1.7-3.7.2-4.5 1.9-4.4 9.8-8.6 18.7-12.5 26.9-.9 1.8-.5 3.1 1.1 3.9 0 0 .1 0 .1.1 1.8.9 3.2.2 4.4-2 1.1-2.1 2-4 2.6-5.7.2-.5.7-.8 1.2-.8l12.3.1c.5 0 .9.2 1.1.7.8 2.1 3.4 10.1 7 7.7 1.5-1.2 1.9-2.5 1.2-4zm-11.2-10.1s0 .1 0 0l-.1.1h-.1l-8.4-.1c-.1 0-.2-.1-.2-.2v-.1l4.3-9.7.1-.1h.2l.1.1 4.1 9.7v.3zm18.6-16.2c0-1.7 1.3-3 3-3h8.1c9.5 0 17.2 7.4 17.2 16.6v.1c0 9.2-7.6 16.7-17.1 16.7h-8.1c-1.7 0-3-1.3-3-3l-.1-27.4zm5.9 3.5V60c0 .5.4.8.9.8h4.6c6.2 0 11.2-4.9 11.2-10.9v-.2c0-6-5-10.9-11.2-10.9h-4.6c-.5.2-.9.5-.9 1zm35.8 19c-.8 2.1-1.9 4.2-3 6.4-1.9 3.5-7 1.5-5.4-2.1 2.8-6.3 6.9-15.1 12.1-26.5.7-1.5 1.9-3.5 3.6-3.3 1.9.2 3.2 3.3 3.9 4.9 3.5 8 7.3 16.2 11.5 24.6.8 1.6.4 2.9-1.3 3.8 0 0-.1 0-.1.1-1.7.8-3 .4-3.9-1.2-1.6-2.8-2.6-4.9-2.9-6.2-.2-.5-.7-.9-1.2-.9h-12.5c-.3-.3-.6 0-.8.4zm2.7-6.4c0 .1 0 .2.1.3h8.8c.1 0 .2-.1.2-.2v-.1l-4.3-10.3c0-.1-.2-.1-.3-.1l-.1.1-4.4 10.3zm33.6-6.3c-.2 0-.4.2-.4.3.2 5.2.2 11.1 0 17.5 0 1.8-1.1 2.7-3 2.8h-.1c-1.9-.3-2.9-1.4-2.9-3.2.1-9.3 0-18.4-.2-27.4 0-1 .3-1.8 1.1-2.4 1.5-1.2 2.8-1 4 .6 3.9 5 7.5 10.7 11.6 15.8.1.2.4.2.5.1l.1-.1c3.4-4.5 6.7-9.1 10-13.7.7-1 1.5-1.9 2.4-2.8 1.5-1.5 3.5-.3 4.3 1.2.2.5.4 1.4.4 2.6v26.1c0 4.1-6.1 4.5-6.1.3.1-6.2.2-12 .2-17.2 0-.3-.1-.6-.2-.7-.2-.2-.5-.1-.7.1-2.3 3.3-4.6 6.6-6.9 9.8s-5 2.9-7.2-.1c-2.3-3-4.4-6.1-6.3-9.3-.3-.1-.5-.2-.6-.3z" style="fill:#fff"/><path d="M87.1 99.6h-4.3l-3-20.5s-.1 0-.1.1c-.7 2.4-1.3 4.6-1.7 6.9-.5 2.6-1.1 7.1-1.9 13.6h-4.9c-.3-5.2-.6-10.5-1-15.7-.2-3.6-.5-7.3-.7-10.9-.1-1.2-.1-2.2-.1-2.9.1-2.1.3-3.9.6-5.4.7-3.2 1.5-6.5 2.2-9.8.3-1.3.5-2.2.6-2.9.3-2.3.4-4.6.2-6.8 0-.2-.1-.2-.1 0-1.2 3.6-2.4 7.1-3.6 10.6-.3 1-.7 2.4-1 4.2-.1.6-.2 1.2-.2 1.8 0 1.1 0 2.2-.1 3.4 0 .5-.1 1-.1 1.4-.1 1-.5 5.3-2.6 4.1-1-.5-1.7-1.3-1.8-2.5-.1-.8 0-1.8.3-2.9.2-.8.4-1.7.7-2.5.1-.4.1-.8.2-1.3 0-1.1-.1-2.2-.3-3.3-.6-3.9-1.3-8-1.9-12.2-.4-3-1-5.9-1.5-8.9 0-.1 0-.1-.1 0s-.1.3-.2.4C59 41 58.8 45.1 59 49.1c.1 1.8.2 3.4.3 4.7.4 3.3.8 6.6 1.1 10.1.1.8.1 1.5.2 2.3 0 .6.1 1.2.1 1.7v12.3c-.1 4.2-.1 8.2 0 12.1 0 2.4.1 4.8.3 7.2h-7.7c.6-7.1.5-14.3-.3-21.4-.5-4.5-1.3-8.8-2.5-12.9-.1-.3-.1-.3-.2 0v.3c-1.9 11.2-2.9 22.6-2.3 33.9h-7.8l.6-32.9c0-1 0-1.7.1-2.3.1-1.3.1-2.7.2-4.1.2-3.1.4-5.8.6-8.2.1-2 .2-4.1.1-6.1-.1-3.5-.5-6.7-1.6-9.8v-.1c-.4 2.5-.8 5-1.2 7.4-.1.9-.3 1.9-.4 2.9-.3 2.4-.5 4.9-.8 7.4-.1.6-.1 1.1-.1 1.7 0 1 0 2.2.2 3.6.2 2.3.3 4.3.3 6.1 0 .7-.1 1.5-.2 2.3-.2 1.3-.8 2.4-1.8 3.2-1.1.9-1.8-.1-2.1-1-.3-.9-.4-1.8-.5-2.8 0-.3-.1-.6-.1-.9-.1-1.6-.2-3.1-.2-4.7 0-1.7-.2-4.5-.5-8.4-.1-1.1-.1-2-.2-2.9-.1-1.8-.1-3.4-.2-4.9 0-.4-.1-.4-.2 0-.9 3.3-1.5 6.8-1.7 10.5-.2 3.9-.2 7.9.1 12.1.2 3 .4 5.8.6 8.6.4 4.4.6 8.8.7 13.2 0 3.4-.2 6.7-.7 10h-6.1c.1-3.2-.1-6.5-.4-9.7-.3-2.8-.7-5.3-1.1-7.6-.6-3.4-1.2-7-1.9-10.8 0-.1-.1-.1-.1-.1h-.3c-.1 0-.1.1-.2.1-1.4 9.4-2.4 18.7-3 28.1h-6c-.1-6-.2-12-.2-18.1v-9.8c0-.6 0-1.2.1-1.9.1-1.3.1-2.7.1-4 0-.7.1-1.4.1-2 .3-5.3.4-9.1.4-11.4 0-2.6-.2-5-.5-7.4 0-.1 0-.1 0 0-.9 3.9-1.7 7.8-2.4 11.6-.5 3-.9 6-1.2 9.3-.1 1.3 0 2.6.1 3.9.1.8-.1 1.9-1.2 1.8-1-.1-1.8-.4-2.2-1.4-.4-.9-.6-1.9-.7-3-.2-1.8-.3-3.6-.2-5.4.1-2.9.2-4.7.2-5.4.2-2.1.4-4.4.6-6.4.2-1.3.4-2.7.6-4.2.2-1.6.5-3.3.8-4.8.3-1.8.7-3.5 1.2-5.2.2-.9.6-1.9 1.2-2.7.9-1.1 2-2 3.4-2.6.8-.3 1.6-.7 2.5-1 1.7-.7 2.7-2 3-3.8.2-1.3.1-2.5-.1-3.6s-.5-2.2-.8-3.2c-.4-1.4-.6-3.1-.3-4.5s1.2-2.4 2.8-3c2.2-.9 4.9-.9 6.3 1.4 1.5 2.4 1.5 6.1.8 8.6-.7 2.3-2.3 4.2-1 6.7.2.5.7.9 1.4 1.3.9.5 1.8.9 2.8 1.2 1.7.6 3.3 1.1 5 1.6.1 0 .1 0 .1-.1.2-.9.3-1.7.5-2.6.6-2.8 1.5-5.3 4-6.9 1.1-.7 2.1-1.2 3-1.6 1-.4 1.9-.8 2.7-1.1 1.8-.8 1.9-2.4 1.8-4.1 0-1.3-.2-2.5-.5-3.4-.4-1.4-.8-2.7-1.2-4-.3-1.2-.4-2.3-.3-3.4.1-1.2.6-2.1 1.4-3 2.2-2.1 5.6-1.8 8-.2 1.9 1.3 2.6 3.7 2.1 5.9-.1.7-.4 1.4-.7 2.1-.5 1.1-1 2.3-1.4 3.5-.9 2.1-.8 4.9 1.3 6.3.5.4 1.1.7 1.7.9.8.3 1.5.6 2.2.9 1.8.7 3.2 1.8 4.3 3.2 1.6 2.1 2.5 4.7 3 7.4.3 1.7.6 3.5.7 5.5.1 1.5.2 3 .3 4.6.1 2.5.2 4.5.4 5.9.1.5.1 1.1.2 1.6 0 .2.1.2.1 0 .6-1.6.7-3.3.6-5-.2-3.1-.8-6.2-.2-9.3.5-2.4 2.1-4.1 4.3-5.2.5-.3 1-.5 1.4-.9 1-.7 1.4-1.6 1.3-2.9-.1-.6-.2-1.2-.4-1.8 0 0 0-.1-.1 0-.2.3-.3.6-.4 1-.4 1.8-.5 3.9-2.7 4.4h-.1c-.4-3.7-.2-7.2.4-10.4.7-3.6 2.5-7.9 6.9-7.5 6.6.5 6.7 10.5 6.6 15.2 0 .2-.2.3-.4.4-.1 0-.1 0-.2-.1L83.2 24c0-.1-.1-.1-.1 0 .2 1.8.7 3.4 2.1 4.5.5.4 1.1.8 1.7 1.2 2.1 1.3 3.6 3.1 4.2 5.6.3 1 .4 2 .5 2.9.1 1.5.2 3.2.4 4.9.1 1.3.2 2.6.5 3.7.4 1.9.9 3.9 1.4 6 .2.8.4 1.7.5 2.6.4 1.8.7 3.7 1 5.5.3 2.7.5 5.8-.4 8.4-.3.8-.7 1.5-1.3 2.1 0 .1-.1.1-.2 0-1-1.6-1.4-3.5-1.6-5.3-.2-1.4-.3-2.8-.5-4.3-.1-1-.3-2-.5-2.9-1.2-4.8-2.5-9.6-3.7-14.2-.1-.4-.2-.4-.2 0-.3 2.9-.1 5.8.5 8.8.6 3.2 1.3 6.4 1.9 9.7.7 3.2.7 6.6.3 9.9-.3 2.6-.7 5.2-.9 7.7-.3 3.3-.6 6.4-.9 9.4-.1 3.3-.5 6.3-.8 9.4z" style="fill:#eab308"/></svg>