<svg version="1.1" id="Layer_1" xmlns="http://www.w3.org/2000/svg" x="0" y="0" viewBox="0 0 407.2 100" style="enable-background:new 0 0 407.2 100" xml:space="preserve"><style>.st2{fill:url(#SVGID_00000075123308890544902510000013582349773343906710_)}.st3{fill:url(#SVGID_00000010307605458714578570000010446376849000637834_)}.st4{fill:url(#SVGID_00000029753032928343307610000007287154529806258109_)}.st5{fill:url(#SVGID_00000049211021008724743720000003222722383956501378_)}.st6{fill:url(#SVGID_00000112618547285208720370000014234154278975303559_)}.st7{fill:url(#SVGID_00000007420508402255729470000018102996515774128031_)}.st8{fill:url(#SVGID_00000084519021362436459160000010456209804292708000_)}.st9{fill:url(#SVGID_00000169536810579866349700000014342145395248946576_)}.st10{fill:url(#SVGID_00000047755674809153004860000018268415011343961766_)}.st11{fill:url(#SVGID_00000011720128825737044870000008959498746505834374_)}.st12{fill:url(#SVGID_00000029734705255409457400000009717498713195078047_)}.st13{fill:url(#SVGID_00000144323358226863988750000009273506752711380652_)}.st14{fill:url(#SVGID_00000036963331409673246050000003728996716293602191_)}.st15{fill:url(#SVGID_00000103952995085563133490000009545877920190959012_)}.st16{fill:url(#SVGID_00000022535878426317988890000003292019171874040481_)}</style><path d="M168 45.9c-.1.3-.1.8-.1 1.3v16.5c0 1.6-.7 2.7-2.2 3.2-2.2.8-3.9-1.6-3.9-3.5.1-8.6 0-17.3-.1-26-.1-2.5.6-4.4 3.4-4.3.2 0 .4.1.6.2 1.2 1 2.1 1.9 2.6 2.5 4.9 5.8 9.9 11.5 14.8 17.3.5.6 1 1.1 1.6 1.6.2.1.4.1.6 0 .1-.1.1-.2.1-.2.1-5.7.1-11.8 0-18.3-.1-4 5.9-4 5.9.1 0 8.7 0 18 .1 27.8 0 2.9-3.4 3.6-5.1 1.5-5.6-6.7-11.3-13.4-17.2-19.8-.2-.2-.6-.2-.8 0-.2-.1-.3 0-.3.1zm-18.7 2.8c-.2-.1-.2-.2-.1-.4 1.6-1.9 2.3-3.9 2.3-6 0-5.9-4.2-8.7-9.9-9-3-.1-5.8-.1-8.2.1-2.1.2-3.4 1.1-3.4 3.3.1 8.7.1 17.4 0 26.1 0 3 1.4 4.1 4.2 4 3.6-.1 6.7-.2 9.5-.1 4.8.1 9.1-2.2 10.1-7.2 1-4.7-.6-8.3-4.5-10.8zm-12.8-9.9h5.4c2.1 0 3.7 1.5 3.7 3.4v1c0 1.9-1.7 3.4-3.7 3.4h-5.4c-.3 0-.5-.2-.5-.5v-6.9c0-.2.2-.4.5-.4zm11.6 17.9c0 2.3-2 4.3-4.4 4.3h-7.2c-.2 0-.5-.2-.5-.4l-.1-8.1c0-.2.2-.5.4-.5h7.2c1.2 0 2.4.5 3.2 1.2.8.8 1.3 1.8 1.3 3l.1.5zm59.7-9.9c4.2.1 7.8 0 10.5-.1 1.6-.1 3.1.3 3.6 1.9.3 1 .2 1.8-.5 2.6-.8 1-2.1 1.1-3.3 1.1h-10.4c-.2 0-.4.2-.4.4l-.1 7.7c0 .3.2.5.5.5h13.2c3.9 0 3.7 5.8-.2 5.7-5.6-.1-10.5-.1-14.8 0-2.8.1-4.6-.5-4.6-3.7.1-6.2.1-14.8.1-25.7 0-1.2.2-2.1.5-2.6.6-.9 1.5-1.3 2.7-1.3h15c1.8 0 3 .3 3.7 1.9.2.6.2 1.1-.1 1.7-.9 2-2.5 2.3-4.6 2.1-3.6-.2-7.3-.2-10.9-.1-.2 0-.4.1-.3.4l.1 7.1c-.1.3 0 .4.3.4zm26.8-13.6h.1c1.6 0 2.9 1.3 2.9 2.9v28c0 1.6-1.3 2.9-2.9 2.9h-.1c-1.6 0-2.9-1.3-2.9-2.9V36c.1-1.6 1.4-2.8 2.9-2.8zM294 62.6c-4.4-9-8.5-17.9-12.3-26.5-.4-.8-.9-1.6-1.7-2.3-1.8-1.7-3.7.2-4.5 1.9-4.4 9.8-8.6 18.7-12.5 26.9-.9 1.8-.5 3.1 1.1 3.9 0 0 .1 0 .1.1 1.8.9 3.2.2 4.4-2 1.1-2.1 2-4 2.6-5.7.2-.5.7-.8 1.2-.8l12.3.1c.5 0 .9.2 1.1.7.8 2.1 3.4 10.1 7 7.7 1.5-1.2 1.9-2.5 1.2-4zm-11.2-10.1s0 .1 0 0l-.1.1h-.1l-8.4-.1c-.1 0-.2-.1-.2-.2v-.1l4.3-9.7.1-.1h.2l.1.1 4.1 9.7v.3zm18.6-16.2c0-1.7 1.3-3 3-3h8.1c9.5 0 17.2 7.4 17.2 16.6v.1c0 9.2-7.6 16.7-17.1 16.7h-8.1c-1.7 0-3-1.3-3-3l-.1-27.4zm5.9 3.5V60c0 .5.4.8.9.8h4.6c6.2 0 11.2-4.9 11.2-10.9v-.2c0-6-5-10.9-11.2-10.9h-4.6c-.5.2-.9.5-.9 1zm35.8 19c-.8 2.1-1.9 4.2-3 6.4-1.9 3.5-7 1.5-5.4-2.1 2.8-6.3 6.9-15.1 12.1-26.5.7-1.5 1.9-3.5 3.6-3.3 1.9.2 3.2 3.3 3.9 4.9 3.5 8 7.3 16.2 11.5 24.6.8 1.6.4 2.9-1.3 3.8 0 0-.1 0-.1.1-1.7.8-3 .4-3.9-1.2-1.6-2.8-2.6-4.9-2.9-6.2-.2-.5-.7-.9-1.2-.9h-12.5c-.3-.3-.6 0-.8.4zm2.7-6.4c0 .1 0 .2.1.3h8.8c.1 0 .2-.1.2-.2v-.1l-4.3-10.3c0-.1-.2-.1-.3-.1l-.1.1-4.4 10.3zm33.6-6.3c-.2 0-.4.2-.4.3.2 5.2.2 11.1 0 17.5 0 1.8-1.1 2.7-3 2.8h-.1c-1.9-.3-2.9-1.4-2.9-3.2.1-9.3 0-18.4-.2-27.4 0-1 .3-1.8 1.1-2.4 1.5-1.2 2.8-1 4 .6 3.9 5 7.5 10.7 11.6 15.8.1.2.4.2.5.1l.1-.1c3.4-4.5 6.7-9.1 10-13.7.7-1 1.5-1.9 2.4-2.8 1.5-1.5 3.5-.3 4.3 1.2.2.5.4 1.4.4 2.6v26.1c0 4.1-6.1 4.5-6.1.3.1-6.2.2-12 .2-17.2 0-.3-.1-.6-.2-.7-.2-.2-.5-.1-.7.1-2.3 3.3-4.6 6.6-6.9 9.8s-5 2.9-7.2-.1c-2.3-3-4.4-6.1-6.3-9.3-.3-.1-.5-.2-.6-.3z" style="fill:#fff"/><linearGradient id="SVGID_1_" gradientUnits="userSpaceOnUse" x1="46.763" y1="21.895" x2="46.763" y2="0"><stop offset="0" style="stop-color:#ecfccb"/><stop offset="1" style="stop-color:#eab308"/></linearGradient><path d="M44.1 3.8c-2.4 1-3.7 3.1-4.1 5.7-.2 1.1-.3 2.2-.4 3.4-.1 1.3-.3 2.6-.6 4-.5 2.3-1.8 4-3.9 5-.1 0-.1 0 0-.1.9-1.3 1.2-2.9 1.4-4.4.3-2.5.3-5.3.4-7.9 0-1.2.2-2.2.4-3C38.5 2.7 41.7.4 45.6 0c5-.5 9.5 2 10.8 7 .2.8.3 1.8.4 3.2 0 2.1.2 4.4.4 6.7.1 1.8.6 3.4 1.3 4.9 0 .1 0 .1-.1.1-.6-.3-1.2-.6-1.7-1.1-1.6-1.4-2.2-3.9-2.4-5.9-.2-1.5-.3-3.1-.5-4.7-.4-3.3-2-5.9-5.4-6.6-1.5-.4-2.9-.3-4.3.2z" style="fill:url(#SVGID_1_)"/><linearGradient id="SVGID_00000008107299297931003340000008966460013067243196_" gradientUnits="userSpaceOnUse" x1="20.902" y1="22.761" x2="20.902" y2="3.016"><stop offset="0" style="stop-color:#ecfccb"/><stop offset="1" style="stop-color:#eab308"/></linearGradient><path style="fill:url(#SVGID_00000008107299297931003340000008966460013067243196_)" d="M25.6 18.9c-.6 2-2.2 3.7-4.3 3.8-2.7.2-4.3-1.6-5.1-3.9 0-.1-.1-.1-.1-.1h-.9c-1.4 0-2.1-2.5-2.2-3.6-.1-1.2-.2-2.4-.2-3.7-.1-1.2 0-2.2.3-3.1.8-3.1 3.3-4.9 6.4-5.3 4.9-.7 9.7 2.1 9.6 7.5 0 1.7-.1 3.3-.3 4.8-.2 1.6-1 3.7-3 3.4-.1.1-.2.1-.2.2zM18 8.4c-.4-.1-.7-.3-1.1-.4-.1 0-.1 0-.2.1 0 .3-.1.6-.2.8-.2.5-.3 1-.3 1.4-.1.9-.1 2.1-.1 3.6 0 0 0 .1.1.1 0-.6.1-1.2.1-1.8.1-1 .4-1.9 1.1-2.7h.1c2 1.1 4.1 1.3 6.3 1 .1 0 .2 0 .2.1.2 1.4.7 2.6 1.4 3.6.1.2.2.1.2 0 0-1 .1-2 .1-3.1 0-1.5-.4-2.7-1.8-3.6-1.3-.8-3-1.1-4.6-.9-.4.1-.9.1-1.3.1-.1 0-.1 0-.1.1l.2 1.5c.1 0 0 .1-.1.1z"/><linearGradient id="SVGID_00000034057194413007039800000003482516733225835699_" gradientUnits="userSpaceOnUse" x1="72.705" y1="22.783" x2="72.705" y2="3.028"><stop offset="0" style="stop-color:#ecfccb"/><stop offset="1" style="stop-color:#eab308"/></linearGradient><path style="fill:url(#SVGID_00000034057194413007039800000003482516733225835699_)" d="M67.8 18.8c-.4 0-.8.1-1.2 0-.6-.1-1.1-.9-1.3-1.4-.3-.6-.5-1.3-.5-1.9-.1-1.2-.2-2.6-.2-4.1 0-1.2.1-2.2.3-3 .4-1.4 1.2-2.5 2.2-3.4 2.9-2.4 7.6-2.6 10.7-.5C79.9 6 81 8 81 10.8c0 1.1 0 2.1-.1 3.2-.1 1.6-.1 3.2-1.3 4.3-.5.5-1.1.7-1.8.6-.1 0-.2 0-.2.1-.6 1.7-1.7 3.1-3.5 3.6-2.9.9-5.1-1-6-3.7-.1-.1-.2-.1-.3-.1zm8.1-8.3c.2 1.4.6 2.7 1.5 3.8h.1l.1-.1v-2.6c0-1.7-.4-3.2-1.9-4.2-2.5-1.7-6.7-.8-7.5 2.4-.3 1.3-.2 2.9-.1 4.3 0 .2.1.2.2 0 .2-.3.3-.6.5-1 .1-.1.2-.2.3-.2.7-.1 1.4-.2 2.1-.4 1.7-.4 3.2-1.1 4.7-2.1-.1 0-.1 0 0 .1 0-.1 0 0 0 0z"/><linearGradient id="SVGID_00000013157628043526434530000004266485643296154275_" gradientUnits="userSpaceOnUse" x1="46.879" y1="21.048" x2="46.879" y2="6.83"><stop offset="0" style="stop-color:#ecfccb"/><stop offset="1" style="stop-color:#eab308"/></linearGradient><path style="fill:url(#SVGID_00000013157628043526434530000004266485643296154275_)" d="M42.3 11.3c2.8-1 5.4-2.4 7.7-4.4.1-.1.1 0 .1 0 .4 1.8 1.2 3.3 2.3 4.8.1.1.1.2.1.4-.1 1.2-.3 2.3-.6 3.5-.3 1.4-.7 2.7-1.6 3.8-.8 1-1.9 1.6-3.2 1.7-3.1.2-4.7-2.4-5.3-5.1-.4-1.6-.6-3-.7-4.2 0-.1 0-.1.1-.1.4-.1.7-.3 1.1-.4z"/><linearGradient id="SVGID_00000004531287908349635190000014932282034895303044_" gradientUnits="userSpaceOnUse" x1="46.877" y1="36.123" x2="46.877" y2="21.909"><stop offset="0" style="stop-color:#ecfccb"/><stop offset="1" style="stop-color:#eab308"/></linearGradient><path style="fill:url(#SVGID_00000004531287908349635190000014932282034895303044_)" d="M43.8 21.9c2 1.3 4.3 1.2 6.2 0h.1c.6 1.3 1.4 2.5 2.3 3.6.1.1.1.2 0 .3-1.6 2.9-3.3 5.9-4.9 9-.2.4-.4.8-.7 1.2-1.5-2.8-3-5.6-4.6-8.5-.3-.6-.6-1.2-.9-1.9v-.3c.9-1.1 1.7-2.3 2.3-3.5.1.1.1.1.2.1z"/><linearGradient id="SVGID_00000083048320767386711870000001490701934179066503_" gradientUnits="userSpaceOnUse" x1="12.9" y1="88.363" x2="12.9" y2="23.05"><stop offset="0" style="stop-color:#ecfccb"/><stop offset="1" style="stop-color:#eab308"/></linearGradient><path style="fill:url(#SVGID_00000083048320767386711870000001490701934179066503_)" d="M16.7 27.6c-2.7 1.1-5.5 2.1-8.2 3.2-.6.2-1.2.5-1.7.8-.5.3-.6 1.5-.6 2-.1 1.5-.3 2.9-.4 4.3-.5 4.6-1.2 10.8-2 18.4-.1.7.2 1.4.5 2 2 4.7 4.1 9.5 6.3 14.4.1.2.1.5.1.7 0 4.9.1 9.8.1 14.8 0 0 0 .1-.1.1-1.2-.8-2.4-1.7-3.5-2.7-.1-.1-.2-.3-.2-.4V74.7c0-.3-.1-.6-.2-.9C4.6 68.5 2.3 63.3.1 58.2c0-.4-.1-.8-.1-1.3.4-3.1.7-6.3 1-9.4.5-4.7 1-9.2 1.4-13.6.2-1.5.3-2.5.6-3.1.8-2.2 2.6-2.9 4.9-3.7 2.5-.9 4.9-1.8 7.2-2.6.7-.3 1.3-.7 1.7-1.3h.1c1.4 1.3 3.4 2 5.3 1.4.8-.2 1.5-.6 2.2-1.1.1 0 .1-.1.2-.1l.1-.1c.1-.1.1-.1.1 0 .2.7.5 1.4.9 2.1v.2c-.3.9-.5 1.7-.8 2.5-1.4 4.8-2.8 9.5-4.1 14.2l-4-14.4c.1-.3 0-.3-.1-.3z"/><linearGradient id="SVGID_00000003067251035132449570000006254124255104173213_" gradientUnits="userSpaceOnUse" x1="80.659" y1="88.496" x2="80.659" y2="23.085"><stop offset="0" style="stop-color:#ecfccb"/><stop offset="1" style="stop-color:#eab308"/></linearGradient><path style="fill:url(#SVGID_00000003067251035132449570000006254124255104173213_)" d="m76.9 27.8-4.2 9.1c-1.8-3.8-3.4-7.6-4.9-11.3-.1-.1 0-.3 0-.4.4-.6.7-1.3 1-2 0-.1.1-.1.1 0 1.4 1.1 3.2 1.8 5.1 1.3 1.1-.3 2-.8 2.7-1.4h.1c.4.6.9 1 1.6 1.3 2.8 1 5.7 2 8.8 3.2 1.8.7 2.9 1.8 3.5 3.4.2.5.3 1.5.5 2.9.9 8 1.7 15.6 2.5 23.1 0 .4 0 .8-.1 1.1-2 4.7-4 9.4-6.1 14.2-.2.6-.5 1.1-.7 1.7-.1.3-.2.7-.2 1v10.4c0 .1 0 .2-.1.3L83 88.5c-.1.1-.2.1-.1-.1V88c0-2.4.1-5 .1-7.6 0-2.5 0-4.9.1-7.1 0-.2.1-.6.4-1.2.7-1.6 1.4-3.3 2.2-4.9.2-.4.4-.8.5-1.3.3-.9.8-1.7 1.2-2.6.2-.4.4-.9.5-1.3.6-1.4 1.3-3 1.9-4.6.2-.5.1-1 .1-1.5-.4-3.9-.9-7.6-1.2-11-.4-3.8-.8-7.5-1.2-11.2 0-.4-.1-.9-.2-1.4 0-.2-.1-.3-.3-.4l-1.2-.6c-3-1.2-5.9-2.3-8.7-3.4-.1-.2-.2-.2-.2-.1z"/><linearGradient id="SVGID_00000176731860107624124470000007557294376725696158_" gradientUnits="userSpaceOnUse" x1="31.833" y1="98.378" x2="31.833" y2="24.416"><stop offset="0" style="stop-color:#ecfccb"/><stop offset="1" style="stop-color:#eab308"/></linearGradient><path style="fill:url(#SVGID_00000176731860107624124470000007557294376725696158_)" d="M29.7 33.2c.9-2.1 1.7-4.1 2.7-6.4.2-.4.4-.6.8-.8 1.7-.6 3.4-1.1 5-1.6h.1c-.6 3.9-1.2 7.6-1.7 11.2-.1.7 0 1.5.2 2.3.9 2.9 1.9 5.8 2.8 8.8v.5c-.3 1.4-.7 2.9-1.2 4.4-.7 2.4-1.4 4.9-2 7.4-.7 2.8-1.2 5.7-1.4 8.8-.2 2.6-.3 5.7-.3 9.4-.1 6.8-.2 13.4-.3 19.8 0 .4 0 .8-.1 1.2 0 .1-.1.1-.1.1l-3.4-.6c-.1 0-.1-.1-.1-.1.1-8.1.3-16.4.4-25.1 0-1.7.2-5.1.5-10.3 0-.3-.4-1.1-.6-1.4l-6.9-12.9c-.2-.3 0-.8.1-1.1 1.1-2.8 2.6-6.4 4.4-11 .2-.4.4-.9.5-1.3.3-.4.4-.9.6-1.3zm6.4 13.4-1.4-8-.1-.1h-.1L30.2 47v.1l3.9 7s.1.1.1 0V54l1.9-7.4z"/><linearGradient id="SVGID_00000088115402679899615360000001520136994091251115_" gradientUnits="userSpaceOnUse" x1="61.937" y1="98.386" x2="61.937" y2="24.399"><stop offset="0" style="stop-color:#ecfccb"/><stop offset="1" style="stop-color:#eab308"/></linearGradient><path style="fill:url(#SVGID_00000088115402679899615360000001520136994091251115_)" d="M61.4 27.2c.6 1.3 1.1 2.6 1.6 3.7 1.7 4.1 3.5 8.4 5.2 12.6.6 1.4 1.1 2.7 1.5 3.9.1.1 0 .3 0 .4-2.5 4.7-5.1 9.3-7.5 14-.1.1-.1.3-.1.5.3 5.9.5 11.7.6 17.7l.3 17.6c0 .1-.1.1-.1.2l-3.5.7s-.1 0-.1-.1c-.1-7.4-.2-14.7-.3-21.8 0-3.4-.2-6.8-.4-10.1-.2-3.4-1-6.3-2-10-.8-2.9-1.6-5.8-2.4-8.8-.1-.4-.2-.8 0-1.1.9-2.9 1.8-5.7 2.7-8.5.3-.7.4-1.5.3-2.2-.1-.8-.2-1.8-.4-2.8-.4-2.9-.9-5.7-1.4-8.6v-.1l5.3 1.7c.1 0 .2.1.2.2.2.3.4.6.5.9zm-.8 25.1c1-1.8 1.9-3.4 2.8-5 .1-.1.1-.2 0-.3-1.4-2.9-2.9-5.7-4.3-8.4H59l-.1.1c-.1 1-.3 2-.5 3.1-.3 1.5-.5 3.1-.7 4.7v.6c.5 2.4 1.1 4.7 1.7 7h.1c.4-.5.8-1.1 1.1-1.8z"/><linearGradient id="SVGID_00000027588853212860560160000005773007108729696163_" gradientUnits="userSpaceOnUse" x1="9.94" y1="59.138" x2="9.94" y2="46.792"><stop offset="0" style="stop-color:#ecfccb"/><stop offset="1" style="stop-color:#eab308"/></linearGradient><path style="fill:url(#SVGID_00000027588853212860560160000005773007108729696163_)" d="m11.7 54.4-1 4.7h-.1l-2.4-4.4 1.7-7.9h.1l1.7 7.6c0-.1 0-.1 0 0z"/><linearGradient id="SVGID_00000175294420418960145680000002121940218051044239_" gradientUnits="userSpaceOnUse" x1="83.712" y1="59.187" x2="83.712" y2="46.776"><stop offset="0" style="stop-color:#ecfccb"/><stop offset="1" style="stop-color:#eab308"/></linearGradient><path style="fill:url(#SVGID_00000175294420418960145680000002121940218051044239_)" d="M85.3 55c-.7 1.2-1.3 2.4-2 3.5l-.3.6c-.1.1-.1.1-.1 0-.3-1.5-.6-2.9-.8-4.2-.1-.3-.1-.6 0-.9.5-2.4 1-4.7 1.5-7.1 0-.1.1-.1.1 0 .2.5.2 1 .3 1.6.5 2.2.9 4 1.2 5.3.1.2.3.9.1 1.2z"/><linearGradient id="SVGID_00000023963842624271061240000016763374522410841001_" gradientUnits="userSpaceOnUse" x1="46.877" y1="52.63" x2="46.877" y2="49.957"><stop offset="0" style="stop-color:#ecfccb"/><stop offset="1" style="stop-color:#eab308"/></linearGradient><path style="fill:url(#SVGID_00000023963842624271061240000016763374522410841001_)" d="M41.9 50H52l.7 2.5v.1H41.3s-.1 0-.1-.1l.7-2.5c-.1 0-.1 0 0 0z"/><linearGradient id="SVGID_00000171692382169230456260000013199357262810080405_" gradientUnits="userSpaceOnUse" x1="21.349" y1="95.771" x2="21.349" y2="75.778"><stop offset="0" style="stop-color:#ecfccb"/><stop offset="1" style="stop-color:#eab308"/></linearGradient><path style="fill:url(#SVGID_00000171692382169230456260000013199357262810080405_)" d="M24.6 95.8c-2.2-.8-4.4-1.7-6.5-2.7-.1-.1-.1-.2-.1-.4.7-4 1.4-7.9 2.1-11.8.3-1.8.7-3.5 1.1-5.1 0-.1 0-.1.1 0l.1.1c1.2 6.3 2.3 12.6 3.3 18.8-.1.3 0 .7-.1 1.1.1-.1.1 0 0 0z"/><linearGradient id="SVGID_00000164508014762528291600000013742211358368557697_" gradientUnits="userSpaceOnUse" x1="72.254" y1="95.86" x2="72.254" y2="75.8"><stop offset="0" style="stop-color:#ecfccb"/><stop offset="1" style="stop-color:#eab308"/></linearGradient><path style="fill:url(#SVGID_00000164508014762528291600000013742211358368557697_)" d="M75.5 93c-2.1 1-4.3 2-6.5 2.8h-.1c.9-6 2-12.1 3.1-18.2l.3-1.5c.1-.3.2-.3.2 0 .1.7.2 1.4.4 2.1 1 4.7 1.8 9.5 2.6 14.2 0 .2 0 .3.1.5 0 0 0 .1-.1.1z"/><linearGradient id="SVGID_00000047765729054729535510000001698762897277070731_" gradientUnits="userSpaceOnUse" x1="42.263" y1="99.7" x2="42.263" y2="84.332"><stop offset="0" style="stop-color:#ecfccb"/><stop offset="1" style="stop-color:#eab308"/></linearGradient><path style="fill:url(#SVGID_00000047765729054729535510000001698762897277070731_)" d="m46.2 84.8.1 14.8c0 .1 0 .1-.1.1l-5.3-.3s-.1 0-.1-.1l-2.5-14.8c0-.1 0-.1.1-.1l7.8.3v.1z"/><linearGradient id="SVGID_00000031928440248728218680000007638691135475812019_" gradientUnits="userSpaceOnUse" x1="51.547" y1="99.671" x2="51.547" y2="84.34"><stop offset="0" style="stop-color:#ecfccb"/><stop offset="1" style="stop-color:#eab308"/></linearGradient><path style="fill:url(#SVGID_00000031928440248728218680000007638691135475812019_)" d="M55.6 84.4 53 99.3h-.1l-5.3.3s-.1 0-.1-.1l.2-14.9s0-.1.1-.1l7.8-.1c-.1-.1 0 0 0 0z"/></svg>