<svg version="1.1" id="Layer_1" xmlns="http://www.w3.org/2000/svg" x="0" y="0" viewBox="0 0 407.2 100" style="enable-background:new 0 0 407.2 100" xml:space="preserve"><style>.st1{fill:#2f2e30}.st2{fill:#f9ebe1}.st4{fill:#fa6b31}.st5{fill:#308274}.st6{fill:#c48409}.st7{fill:#faf7ee}</style><path d="M168 45.9c-.1.3-.1.8-.1 1.3v16.5c0 1.6-.7 2.7-2.2 3.2-2.2.8-3.9-1.6-3.9-3.5.1-8.6 0-17.3-.1-26-.1-2.5.6-4.4 3.4-4.3.2 0 .4.1.6.2 1.2 1 2.1 1.9 2.6 2.5 4.9 5.8 9.9 11.5 14.8 17.3.5.6 1 1.1 1.6 1.6.2.1.4.1.6 0 .1-.1.1-.2.1-.2.1-5.7.1-11.8 0-18.3-.1-4 5.9-4 5.9.1 0 8.7 0 18 .1 27.8 0 2.9-3.4 3.6-5.1 1.5-5.6-6.7-11.3-13.4-17.2-19.8-.2-.2-.6-.2-.8 0-.2-.1-.3 0-.3.1zm-18.7 2.8c-.2-.1-.2-.2-.1-.4 1.6-1.9 2.3-3.9 2.3-6 0-5.9-4.2-8.7-9.9-9-3-.1-5.8-.1-8.2.1-2.1.2-3.4 1.1-3.4 3.3.1 8.7.1 17.4 0 26.1 0 3 1.4 4.1 4.2 4 3.6-.1 6.7-.2 9.5-.1 4.8.1 9.1-2.2 10.1-7.2 1-4.7-.6-8.3-4.5-10.8zm-12.8-9.9h5.4c2.1 0 3.7 1.5 3.7 3.4v1c0 1.9-1.7 3.4-3.7 3.4h-5.4c-.3 0-.5-.2-.5-.5v-6.9c0-.2.2-.4.5-.4zm11.6 17.9c0 2.3-2 4.3-4.4 4.3h-7.2c-.2 0-.5-.2-.5-.4l-.1-8.1c0-.2.2-.5.4-.5h7.2c1.2 0 2.4.5 3.2 1.2.8.8 1.3 1.8 1.3 3l.1.5zm59.7-9.9c4.2.1 7.8 0 10.5-.1 1.6-.1 3.1.3 3.6 1.9.3 1 .2 1.8-.5 2.6-.8 1-2.1 1.1-3.3 1.1h-10.4c-.2 0-.4.2-.4.4l-.1 7.7c0 .3.2.5.5.5h13.2c3.9 0 3.7 5.8-.2 5.7-5.6-.1-10.5-.1-14.8 0-2.8.1-4.6-.5-4.6-3.7.1-6.2.1-14.8.1-25.7 0-1.2.2-2.1.5-2.6.6-.9 1.5-1.3 2.7-1.3h15c1.8 0 3 .3 3.7 1.9.2.6.2 1.1-.1 1.7-.9 2-2.5 2.3-4.6 2.1-3.6-.2-7.3-.2-10.9-.1-.2 0-.4.1-.3.4l.1 7.1c-.1.3 0 .4.3.4zm26.8-13.6h.1c1.6 0 2.9 1.3 2.9 2.9v28c0 1.6-1.3 2.9-2.9 2.9h-.1c-1.6 0-2.9-1.3-2.9-2.9V36c.1-1.6 1.4-2.8 2.9-2.8zM294 62.6c-4.4-9-8.5-17.9-12.3-26.5-.4-.8-.9-1.6-1.7-2.3-1.8-1.7-3.7.2-4.5 1.9-4.4 9.8-8.6 18.7-12.5 26.9-.9 1.8-.5 3.1 1.1 3.9 0 0 .1 0 .1.1 1.8.9 3.2.2 4.4-2 1.1-2.1 2-4 2.6-5.7.2-.5.7-.8 1.2-.8l12.3.1c.5 0 .9.2 1.1.7.8 2.1 3.4 10.1 7 7.7 1.5-1.2 1.9-2.5 1.2-4zm-11.2-10.1s0 .1 0 0l-.1.1h-.1l-8.4-.1c-.1 0-.2-.1-.2-.2v-.1l4.3-9.7.1-.1h.2l.1.1 4.1 9.7v.3zm18.6-16.2c0-1.7 1.3-3 3-3h8.1c9.5 0 17.2 7.4 17.2 16.6v.1c0 9.2-7.6 16.7-17.1 16.7h-8.1c-1.7 0-3-1.3-3-3l-.1-27.4zm5.9 3.5V60c0 .5.4.8.9.8h4.6c6.2 0 11.2-4.9 11.2-10.9v-.2c0-6-5-10.9-11.2-10.9h-4.6c-.5.2-.9.5-.9 1zm35.8 19c-.8 2.1-1.9 4.2-3 6.4-1.9 3.5-7 1.5-5.4-2.1 2.8-6.3 6.9-15.1 12.1-26.5.7-1.5 1.9-3.5 3.6-3.3 1.9.2 3.2 3.3 3.9 4.9 3.5 8 7.3 16.2 11.5 24.6.8 1.6.4 2.9-1.3 3.8 0 0-.1 0-.1.1-1.7.8-3 .4-3.9-1.2-1.6-2.8-2.6-4.9-2.9-6.2-.2-.5-.7-.9-1.2-.9h-12.5c-.3-.3-.6 0-.8.4zm2.7-6.4c0 .1 0 .2.1.3h8.8c.1 0 .2-.1.2-.2v-.1l-4.3-10.3c0-.1-.2-.1-.3-.1l-.1.1-4.4 10.3zm33.6-6.3c-.2 0-.4.2-.4.3.2 5.2.2 11.1 0 17.5 0 1.8-1.1 2.7-3 2.8h-.1c-1.9-.3-2.9-1.4-2.9-3.2.1-9.3 0-18.4-.2-27.4 0-1 .3-1.8 1.1-2.4 1.5-1.2 2.8-1 4 .6 3.9 5 7.5 10.7 11.6 15.8.1.2.4.2.5.1l.1-.1c3.4-4.5 6.7-9.1 10-13.7.7-1 1.5-1.9 2.4-2.8 1.5-1.5 3.5-.3 4.3 1.2.2.5.4 1.4.4 2.6v26.1c0 4.1-6.1 4.5-6.1.3.1-6.2.2-12 .2-17.2 0-.3-.1-.6-.2-.7-.2-.2-.5-.1-.7.1-2.3 3.3-4.6 6.6-6.9 9.8s-5 2.9-7.2-.1c-2.3-3-4.4-6.1-6.3-9.3-.3-.1-.5-.2-.6-.3z" style="fill:#fff"/><path class="st1" d="M54.4 9.2c-.3 0-.5.2-.6.3-.2.3-.3.2-.3-.1 0-1.4-.1-2.7-.4-4.1 0-.1-.1-.2-.2-.1h-.1c-.8.6-1.4.7-2.4.8-.7 0-1.6 0-2.2.3-.5.2-.8.5-1.1.9-.6.7-.6 1.6-.8 2.5 0 0 0 .1-.1.1-.3-.2-.5-.4-.8-.4-.3-.2-.4-.3-.4-.4 0-.4-.1-.7-.2-.9-.4-.7-.6-1.5-.7-2.3 0-.4-.1-.7-.3-1-.2-.8.4-1.3.8-1.8.2-.2.3-.5.4-.8.1-.7.6-1.2 1.4-.9.2.1.5.1.7-.2.5-.5.8-1 1.6-1.1 1.1-.2 2.2 0 3.2.4.6.2.9.7 1.4 1.2.1.1.2.1.3 0l.3-.2h.2c.6.1.9 1 1 1.6 0 .1 0 .1.1.2.6.6.9 1.3.6 2.1-.1.2-.2.5-.3.8-.1.2-.1.4-.1.8-.2.8-.5 1.6-1 2.3z"/><path class="st2" d="M54.4 9.2c.1.9-.2 2.3-1.3 2.5-.1 0-.1.1-.1.1-.1.3-.3.7-.4 1-.1.3-.2.6-.2 1 0 1 .1 1.6.2 1.9.1.5.3.8.7.8.1.3 0 .5-.1.7-.9 1-1.9 1.6-3.1 1.7-1.8.1-3.2-.7-3.7-2.4.4-.2.6-.5.7-1.1.1-.7.1-1.4.1-2.1-.1-.5-.2-1-.5-1.5 0-.1-.1-.1-.1-.1-.3-.1-.7-.2-.8-.6-.3-.6-.4-1.2-.3-1.8.3 0 .5.2.8.4h.1c.2-.9.2-1.8.8-2.5.3-.3.7-.6 1.1-.9.6-.3 1.5-.3 2.2-.3.9 0 1.6-.2 2.4-.8.1-.1.2 0 .3 0v.1c.3 1.4.5 2.7.4 4.1 0 .4.1.4.3.1 0-.2.2-.3.5-.3z"/><path d="M29.6 23.9c.1 0 .1.1.1.2-.1 1-.6 1.5-1.6 1.7-.1 0-.1 0 0 .1l1.2.6c.7.4 1.1 1.3 1.4 2 .5 1.6.9 3.3 1.3 4.9 1 3.1 1.7 6.1 2.5 9.7.2 1 .4 2.2.5 3.4.1 1.5-.4 2.8-1.9 3.4-.1 0-.1.1-.1.1v.1-.1l-.1-.1-1.3-.2s-.1 0-.1.1V51.7c0 .2.1.4.1.7.1.8.2 1.7.3 2.5v.6c0 .3 0 .6.1.8 0 .2.1.3.1.4.1.2.1.3.1.5s0 .4.1.6c0 .2.1.4.1.6v.1c0 .5.1.9.3 1.2l1.2 6.6c0 .1 0 .1-.1.1-1 .5-2 .9-3.1 1.3-.1 0-.1.1-.1.3-.1 0-.2 0-.4.1s-.3.1-.3.1c-1.2.4-2.3.6-3.6.7-.2 0-.6.1-1 .2 0 0 0-.1-.2-.1-1.4.1-2.8.1-4.2.1-.4.1-.8.1-1.1.1-.5 0-.7-.1-.7-.1-1.3-.1-2.5-.3-3.6-.8 0-.1-.2-.2-.4-.3l-3.9-1.2-.1-.1c0-.4 0-.9.1-1.5.3-2.5.5-5.1.6-7.9.3.3.5.7.6 1.1.2.7.4 1 .4 1 .4.9 1.1 1.5 2 1.9h.1v-.2c-.4-.8-.6-1.7-.7-2.7 0 0 0-.1.1-.1h.1s.1.1.1.2c.1.3.2.6.3.8.1.3.3.3.4 0 .1-.2.1-.5 0-.8-.1-.4-.1-.8-.2-1.2-.1-.3-.2-.6-.4-1.1-.2-.5-.4-1-.5-1.5l.1.1c.1.1.1 0 .1 0 0-.7.1-1.5.3-2.2.1-.5.2-.9.4-1.3.4-.9.7-1.9.9-3 .2-1.4.4-2.9.6-4.4.3-2.6.6-5.2.6-7.7 0-.4-.1-.9-.1-1.4-.1-.5-.2-.9-.2-1.4-.1 0-.1 0-.1.1.1.9.1 1.6 0 2.2-.1.7-.3 1.4-.4 2.1-.2 2-.4 4-.6 5.9-.1 1.3-.1 2.6-.1 4 0 .7-.1 1.3-.2 1.8s-.4 1.1-.7 1.8c-.1.2-.3.3-.7.4-.8.1-1.4.2-2 .5l-.8-.8c-.3-.3-.6-.6-.7-.9-.6-1-.8-2.4-.7-3.6.1-.7.1-1.4.2-2 .8-4.8 1.5-9.6 2.2-14.4.4-2.5 1.1-4.6 4-4.9.1 0 .1-.1 0-.1-.4-.2-.8-.5-1.2-.8-.3-.2-.4-.5-.4-.8 0-.4.3-.7.4-1 0-.1 0-.2-.1-.2-1.2-.2-2.3-.8-2.1-2.3 0 .3.2.5.5.6.7.1 1.5-.5 1.8-1.1.3-.4.4-1 .5-1.5 0-.7.1-1.4.3-2 .3-1.5.9-2.8 1.8-3.8 2-2.3 5.3-2 7.7-.4 1.1.7 1.7 1.7 2.2 2.9 1 2.1 2.3 4.4.8 6.7-.1.2-.1.3-.1.5v1.2c0 .4.1.6.4.9.5-.1.8-.2.9-.5zm-7.1-7.3c.3 0 .3.1 0 .1-.9.2-2.1.4-2.5 1.2 0 .1-.1.1-.2.1-.8-.3-1 .1-.7.8.4.8.8 1.7 1.2 2.5.1.2.2.5.2.7 0 1.6-.4 2.9-1.9 3.6-.2.1-.2.1 0 .1s.4.1.5.3c.5.6.9 1.1 1.2 1.3l.6.6c.2.2.5.4.7.5.6.3 1.2.5 1.7.6.2.1.5 0 .8 0 .2-.1.4-.2.6-.4.7-.8.9-1.8.5-2.9-.1-.2-.5-.5-.7-.8-.2-.5-.3-1-.2-1.6 0-.1 0-.1-.1-.1h-.1c-.3.1-.5.1-.8.1-.2 0-.3-.1-.5-.1-.6-.1-1.2-.5-1.6-.8.7.6 1.5.9 2.4.8.3 0 .5-.1.7-.2.2-.1.5-.2.7-.3.2-.1.3-.2.4-.3.1-.1.2-.2.2-.3.8-1.3 1.1-2.7.9-4.2-.1-.5-.4-.9-.7-1.2-.3-.3-.6-.7-.8-1.2v-.1c0-.1 0-.2-.1-.2-.1-.3-.2-.5-.3-.7 0-.1-.1-.1-.1-.1-.2 0-.3.1-.5.3-.6.6-1.2 1-2.1 1.4-.3.1-.7.3-1.2.6l-.2.2c-.1.2 0 .3.2.1.6-.4 1.2-.5 1.8-.4zM31 45.8v-8.5c-.2 0-.4 1.7-.4 3.8v1c-.1 2 .1 3.7.4 3.7zm-19 3.7c-.3-.2-.7-.9-.8-1.3.1.4.3.9.5 1.3.1.2.2.5.1.8 0 .1.1.2.1.2h.1c.8-.5 1.4-1.2 1.8-2.1v-.1h-.2c-.5.4-1 .8-1.4 1.2H12z" style="fill:#fcc433"/><path class="st4" d="M88.8 52.9c-.4 0-.9-.1-1.3-.1-.2 0-.5 0-.7.1-.1 0-.1.1-.1.1v.4c-.4 1.2-.7 2.2-.7 3.4 0 .4-.1.8-.1 1.3 0 .1-.1.1-.3.1-.4.1-.5.9-.5 1.2-.2 2.1-.4 4.2-.5 6.4-.1 1.8-.2 3.5-.2 5.4 0 1 0 1.9.3 2.9.4 1.7.6 3.1.7 4.3.2 3.1.2 6.3-.1 9.5-.1.9-.2 1.7-.2 2.4 0 .2-.1.6-.2 1.1-.1.5-.2 1-.1 1.6v-1.4c0-.1-.1-.2-.2-.2h-2.2c0-.5 0-.9-.1-1.4-.6-4.1-1.2-8.3-1.7-12.3-.1-.6-.3-1.6-.6-3.1-.2-1-.5-2-.6-2.9-.4-2.7-.8-5.4-1.2-8-.1-.6-.2-1.1-.3-1.7-.1-.4-.1-.9-.1-1.3 0 0 0-.1-.1-.1-.6.1-1.2.1-1.7 0-.1 0-.1-.1-.1-.1-.1-.7-.1-1.3 0-1.9v-2.9c0-1.8.1-3.6-.1-5.4 0 1.7 0 3.3-.1 5v2.9c0 1.1 0 2.1-.1 2.9-.2 2-.3 3.9-.5 5.7-.1 1-.1 2-.2 3-.1 1.6-.2 3.2-.4 5-.2 1.8-.2 3.7-.3 5.5-.2 2.2-.5 4.3-.9 6.3 0 .2 0 .4-.1.5 0 .1-.1.1-.1.2-.2 1.3-.4 2.1-.4 2.5-.1.8-.3 1.4-.6 1.7-.6-.1-1.3-.2-2.1-.1-.2 0-.3.1-.4.2-.1-5.9-.2-10.3-.2-13.1 0-.8 0-1.9.1-3.2.1-1 .1-1.8 0-2.5-.1-1.8-.4-3.4-.6-5.1-.2-1.5-.3-2.3-.3-2.6-.3-2-.6-4-.9-6.1 0-.1-.1-.2-.2-.2l-.5.1-.1-.1-.5-1c.2-.1.2-.3.2-.6-.2-1.7-.3-3.4-.3-5.1 0-.1-.1-.2-.2-.2-.7 0-1.3 0-1.8.2-.1-.2-.2-.5-.4-.8-.4-.7-.6-1.1-.3-2 .1-.5.4-.8.7-1.2.1-.2.2-.3.2-.5.2-2.3.4-4.4.6-6.3.2-1.3.5-3.2.9-5.6.3-2 .8-3.9 1.3-5.6.6-2 1.9-3.6 4-4.3.4-.1.7-.2 1.1-.3.3-.1.7-.2.9-.5.2-.2.4-.4.7-.6.1 0 .1-.1 0-.1h-.1c-2 .7-3.3-.9-3.7-2.7-.2-.9.1-1.7.7-2.4.3-.4.6-1 .7-1.7.3-2.8 1.1-6 4.3-6.5 1.9-.3 3.5 0 5 1.2.9.8 1.5 1.8 1.7 3 .1.8.2 1.6.2 2.3v1.1c0 .2.1.4.1.6 0 .2.1.4.2.5.2.3.4.6.8.8.3.2.8.2 1.1.1.1 0 .1 0 .2.1.2 1.2-.1 2.2-.9 3-.7.8-1.8 1.1-2.9 1.2-.1 0-.2.1-.2.2 0 0 0 .1.1.1l.6.3c1.3.3 2.7.6 3.7 1.6.6.6 1.1 1.4 1.4 2.2.4 1.1.8 2.3 1 3.5.4 2 .7 4 1 6.2.3 2 .4 3.9.6 5.9.1 1.4.2 2.8.2 4.2 0 .5.3.7.5 1.1.2.4.2.9 0 1.3-.3.8-.8 1.2-1.5 1.4zM74 16.4s0 .1 0 0c-.3.1-.7.2-1 .2-.2 0-.3.2-.3.3-.1 1.8.3 3.4 1.2 4.9.3.4.6.8 1 1 .1 0 .1.1.1.2 0 .4-.1.8-.1 1.2-.1.6.1 1.1.6 1.5 1.1.9 2.5.3 3.4-.7.1-.2.3-.4.4-.6v-.1c-.2 0-.4-.2-.4-.4-.3-.7-.4-1.4-.3-2.1 0-.1 0-.1.1-.1.5-.5.7-1.1.9-1.7.1-.7.2-1.4.2-2.1 0-.5-.6-.8-1-1-.8-.3-1.6-.7-2.2-1.3-.6-.6-.9-1.4-1-2.4 0-.2-.1-.2-.2-.1-.8.9-1.5 1.7-2.2 2.6-.1.2-.2.4-.2.6 0 .1 0 .1.1.1h.9zm11.5 33.2c0 .2.1.2.2 0 0-.1.1-.3 0-.4-.4-2.2-.7-4.3-1-6.5-.1-.7-.1-1.5-.2-2.2-.1-.5 0-1-.1-1.5-.1-.8-.1-1.6-.2-2.4.1 1.4.2 2.8.3 4.3.1 1.1.2 2.1.3 2.9l.6 4.5c-.1.5 0 .9.1 1.3zm-9.8-.5c.1-.5.1-.9 0-1.1v1.1zm10.8 3.1s-.1 0 0 0c-.1.2-.1.3 0 .5h.1c0-.1-.1-.3-.1-.5z"/><path class="st2" d="M74 16.4h-1c-.1 0-.1 0-.1-.1 0-.2.1-.4.2-.6.7-.9 1.4-1.7 2.2-2.6.1-.1.2-.1.2.1 0 .9.4 1.7 1 2.4.5.6 1.4 1 2.2 1.3.4.2.9.5 1 1 0 .7-.1 1.4-.2 2.1-.1.6-.4 1.2-.9 1.7l-.1.1c0 .7.1 1.5.3 2.1.1.2.2.3.4.4 0 0 .1 0 .1.1-.1.2-.3.4-.4.6-.9 1-2.2 1.6-3.4.7-.5-.4-.7-.8-.6-1.5 0-.4.1-.8.1-1.2 0-.1 0-.2-.1-.2-.4-.3-.8-.6-1-1-.9-1.5-1.3-3.1-1.2-4.9 0-.2.1-.3.3-.3.3 0 .6-.1 1-.2 0 .1 0 0 0 0zm3.6.3c0-.1-.3-.2-.6-.3-.4-.1-.7-.2-.7-.1s.3.2.6.3c.4.1.7.1.7.1zM22.5 16.6c-.6-.1-1.1 0-1.6.3-.2.1-.2.1-.2-.1 0-.1.1-.1.2-.2.4-.3.8-.5 1.2-.6.9-.3 1.5-.8 2.1-1.4.1-.1.3-.2.5-.3.1 0 .1 0 .1.1.1.2.2.4.3.7 0 .1.1.2.1.2v.1c.3.5.5.9.8 1.2.3.4.7.7.7 1.2.2 1.5-.1 2.9-.9 4.2-.1.1-.1.2-.2.3-.1.1-.3.2-.4.3-.2.1-.5.2-.7.3-.2.1-.5.2-.7.2-.9.1-1.7-.2-2.4-.8.4.4 1 .7 1.6.8.2 0 .3 0 .5.1.3.1.5 0 .8-.1.1 0 .1 0 .1.1v.1c-.1.6-.1 1.1.2 1.6.1.3.6.6.7.8.4 1.1.2 2.1-.5 2.9-.2.2-.4.3-.6.4-.3.1-.5.1-.8 0-.5-.1-1.1-.3-1.7-.6-.3-.1-.5-.3-.7-.5l-.6-.6c-.3-.3-.7-.7-1.2-1.3-.1-.1-.3-.2-.5-.3-.2 0-.2-.1 0-.1 1.5-.6 2-2 1.9-3.6 0-.3-.1-.5-.2-.7-.4-.8-.8-1.7-1.2-2.5-.3-.7-.1-1.1.7-.8.1 0 .1 0 .2-.1.5-.8 1.6-1 2.5-1.2.1 0 .1-.1-.1-.1z"/><ellipse transform="rotate(-70.001 76.968 16.437)" class="st4" cx="77" cy="16.4" rx=".1" ry=".7"/><path class="st5" d="M46.2 16.5c.6 1.7 2 2.5 3.7 2.4 1.2-.1 2.3-.6 3.1-1.7.2-.2.2-.4.1-.7 1.6.3 3.2.7 4.7 1.2.9.3 1.7.7 2.4 1.2 1.3.9 1.8 2.2 2.2 3.7.7 2.5 1.3 5 1.9 7.5.1.3.1.7.1 1 0 .1 0 .2-.1.2l-.8.4L60 34c-.2-.1-.4-.2-.8-.2-.1 0-.2-.1-.2-.2 0-1.1-.1-2.2-.1-3.2.1-1.5.2-3.1.5-4.6 0-.2.1-.4.1-.7 0-.2.1-.5.1-.7.2-.9.5-1.8.6-2.8 0-.1.1-.2.2-.4 0-.4 0-.4-.1 0-.3.9-.6 2-.8 3.3-.2.8-.3 1.5-.4 2.1v.3c-.1.6-.2 1.2-.2 1.7-.1.5-.1 1.5-.1 3V37.5c0 1.8.1 3.7 0 5.6v.9c-.1.4-.1.9-.2 1.4 0 .1 0 .2-.1.3-.1.1-.2.1-.3.2l-1.8.9c-1.7.8-3.4 1.4-5.2 1.7-2.3.4-4.7.2-7-.6-1-.3-2-.9-2.9-1.4l-.3-.2-.1-.1v-.1l.1-.1c0-.4-.1-.7-.4-.8.2-.2.2-.5.3-.9.1-1.2.2-2.3.2-3.4 0-2.2 0-4.5-.1-6.6 0-1.1-.2-2.2-.2-3.3-.2-2.5-.6-4.9-1.2-7.2-.2-.6-.3-1.2-.5-1.8.8 2.6 1.3 5.3 1.5 8.1.1 1.5.1 2.6-.1 4 0 .1-.1.1-.1.1l-1.2-.2c-1-.6-2-1.3-3-1.9-.2-.1-.4-.2-.7-.3-.1-.2-.3-.4-.6-.5l-.1-.1v-.4c.8-2.6 1.5-5.2 2.3-7.8.2-.9.6-1.8 1-2.6.6-1.2 2.5-2.2 3.7-2.6 1.4-.4 2.9-.9 4.4-1.3zm-5.1 28.2v.1c1.7.6 3.1 1.1 3.1 1.1.1 0-1.3-.5-3.1-1.2z"/><path class="st4" d="M29.8 24.1c0-.1-.1-.1-.1-.2l.1-.1c0-.1.1-.1.1 0l-.1.3z"/><path class="st2" d="M63.7 31.8c.1.3.1.5.2.7l.6 4.2c.1.6 0 1.1-.2 1.7-.4 1.2-1 2.4-1.6 3.6-1 1.8-2 3.6-3.1 5.4-.1.2-.3.5-.5 1-.3-.3-.4-.6-.3-.9V47c0-.1-.1-.2-.1-.4-.1-.2-.2-.5-.3-.7.1 0 .2-.1.3-.2.1-.1.1-.2.1-.3 0-.5.1-1 .2-1.4.3-.7.6-1.4.7-2.1.4-1.6.9-3.1 1.3-4.5.1-.3.1-.5 0-.8-.3-.9-.7-1.7-1-2.6l3.7-2.2zM35.5 31.8c.3.1.5.2.7.3 1 .6 2 1.3 3 1.9-.5 1-.9 2-1.2 3-.1.3-.1.6 0 .9.3.8.6 1.5.9 2.3.5 1.7 1.1 3.4 1.8 5 .3.1.4.4.4.8 0 .1 0 .1-.1.1v.1c0 .1 0 .1.1.1l.4.2c-.3 0-.4.1-.5.4-.1.3-.1.6-.1.9v.1c.1 0 .1.1 0 .2v.5s0 .1-.1.1c-.1.1-.1.1-.2.3-.8-1.5-1.4-2.5-1.8-3-1.3-1.8-2.5-3.7-3.6-5.7-.5-1.1-.8-2-.7-3.2.2-1.8.6-3.5 1-5.3z"/><path class="st6" d="m14.3 54.8-.2-3c.4-.1.6-.2.7-.4.3-.7.5-1.3.7-1.8.1-.5.2-1.1.2-1.8 0-1.3 0-2.7.1-4 .2-2 .3-4 .6-5.9.1-.7.3-1.4.4-2.1.1-.6.1-1.4 0-2.2 0-.1 0-.1.1-.1.1.5.2.9.2 1.4.1.5.1.9.1 1.4.1 2.5-.2 5.1-.6 7.7-.2 1.5-.4 3-.6 4.4-.2 1.1-.5 2.1-.9 3-.2.4-.3.8-.4 1.3-.1.8-.2 1.5-.3 2.2.1 0 .1 0-.1-.1zM31 45.8c-.2 0-.4-1.7-.4-3.7v-1c0-2.1.2-3.8.4-3.8v8.5z"/><path class="st1" d="M41.1 44.7c.1 0 .1 0 0 0 1.8.6 3.1 1.1 3.1 1.2 0 0-1.4-.4-3.1-1.1v-.1z"/><path class="st7" d="M58.3 45.8c.1.2.2.5.3.7.1.1.1.2.1.4s.1.3 0 .5c-.1.3 0 .6.3.9-.2.5-.3 1.1-.3 1.6 0 2.5-.1 4.6-.2 6.3-.2 3.7-.4 7.8-.6 12.5-.2 6.2-.6 11.9-1.3 18-.1 1.2-.4 2.5-.5 3.7 0 .2.1.3.2.4.1 0 .1 0 .1.1-.1.6-.2 1.3-.3 1.9 0 .1-.1.2-.2.2h-.1c-.2-.1-.4-.1-.6-.1-.1 0-.1.1-.1.1 0 .3 0 .6.1.9 0 .1 0 .1-.1.1-1.1 0-2.1-.1-3 .2-.2.1-.4.2-.5.4l-.3.6c-.1-.5-.4-1.2.1-1.5l.1-.1c.1-.3 0-.6-.1-.9-.2-.5-.3-1.1-.2-1.9 0-.1 0-.1.1-.1s.2-.1.3-.2v-.1c0-.7-.1-1.3-.1-2V75.7c0-1.8-.1-4.5-.4-7.8-.1-.9-.1-1.9-.2-3-.3-2.8-.6-5.7-.8-8.5-.1-1-.1-2-.2-3 0-.2-.1-.2-.3-.1h-.1c-.2.1-.2.2-.2.4v2.6c-.2 5.5-.5 11-.8 16.5 0 1-.1 2-.1 3 0 4.3-.1 8.6-.2 12.9 0 .5 0 1-.1 1.6v.2c0 .1 0 .2.1.2s.1.1.1.2v1.5c0 .5-.4.4-.7.3-.1 0-.1 0-.1.1v.3c0 .2 0 .3.1.5.1.4.2.6.1.9 0 .1-.1.1-.1.1-.2-.2-.5-.3-.8-.4l-1.3-.2h-.2c-.1 0-.1.1-.2 0-.2-.1-.6 0-.8.1h-.1c0-.1-.1-.2 0-.3l-.1-1.1c0-.3 0-.4-.2-.5-.3-.3-.4-.6-.5-1 0-.1 0-.2.1-.2h.2c.1 0 .1 0 .1-.1v-.7c-.4-3.1-.7-5.9-.9-8.5-.2-2.4-.3-4.5-.4-6.4-.5-8.4-1-16.4-1.5-23.8-.1-.9-.3-1.7-.6-2.5 0-.1.1-.2.2-.3l.1-.1c.1-.1.1-.3 0-.4v-.4c0-.3.1-.6.1-.9.1-.3.2-.4.5-.4 1 .5 2 1.1 2.9 1.4 2.2.8 4.6 1 7 .6 1.8-.3 3.5-.9 5.2-1.7.7-.3 1.3-.6 1.9-1zM50 49c-.1 0-.1 0 0 0-.1 1.3-.2 2.6-.3 3.8 0 .1.1.2.2.3h.1l.9-.3c-.3 0-.6.1-.9.1-.1 0-.2 0-.2-.1L50 49zm2.5 21.7c.1.2.4.4.6.7.1.1.2.2.4.3 1 .6 2 1.2 3.1 1.8v-.1c-.5-.5-1-.9-1.5-1.2-.5-.3-1.1-.6-1.6-.8-.5-.3-.7-.6-1-.7-.1-.1-.1-.1 0 0zm1.7 23.1s-.1-.1-.2-.1h-.2s.1.1.2.1h.2z"/><path class="st6" d="M12 49.5h.1c.5-.4 1-.8 1.4-1.2.1 0 .1-.1.2 0 0 0 .1.1 0 .1-.4.9-1 1.6-1.8 2.1h-.2v-.1c0-.3 0-.5-.1-.8-.2-.4-.4-.8-.5-1.3.2.3.5 1 .9 1.2z"/><path class="st5" d="m50 49-.1 3.7c0 .1.1.2.1.2.3-.1.6-.1.9-.1l-.9.3c-.1 0-.3 0-.3-.2v-.1c.1-1.2.2-2.4.3-3.8-.1 0-.1 0 0 0z"/><path class="st2" d="M33.1 49.9c0 1.2.2 2.8.4 5v1.8c0 1.1-.2 2.1-.6 3-.2-.3-.3-.7-.3-1.2v-.1c0-.2 0-.4-.1-.6 0-.2-.1-.4-.1-.6 0-.2 0-.3-.1-.5-.1-.1-.1-.3-.1-.4 0-.3-.1-.6-.1-.8v-.1c0-.1-.1-.1 0-.2v-.3c-.1-.8-.2-1.7-.3-2.5 0-.2 0-.5-.1-.7-.1-.5 0-1.1 0-1.6V50c0-.1-.1-.1 0-.2l.1-.1 1.3.2c-.1-.1 0-.1 0 0zM14.1 51.8l.2 3c.1.5.3 1 .5 1.5s.3.9.4 1.1c.1.4.2.8.2 1.2v.8c-.1.3-.2.3-.4 0-.1-.3-.2-.5-.3-.8 0-.1-.1-.1-.1-.2h-.1v.1c.1 1 .3 1.9.7 2.7v.2s-.1.1-.1 0c-.9-.4-1.5-1-2-1.9 0 0-.1-.3-.4-1-.2-.4-.4-.8-.6-1.1.1-1.6.2-3.4.1-5.2.5-.2 1.2-.4 1.9-.4zM66.4 57.8c-.4-.5-.4-1-.6-1.6 0 .4.1.9.2 1.3.2.5.4.9.5 1.3 0 .1 0 .1-.1.1-.4-.1-.7-.4-.9-.7-.4-.6-.7-1.2-1-1.8-.3-.5-.3-1.2-.2-1.9V52c.5-.2 1.2-.2 1.8-.2.1 0 .2.1.2.2 0 1.7.1 3.4.3 5.1 0 .4 0 .6-.2.7zM86.5 52.2c0 .2.1.3.1.5 0 0 0 .1-.1 0s-.1-.3 0-.5c-.1 0 0 0 0 0zM88.8 52.9c0 1.2 0 2.5.1 3.7 0 .6-.2 1.4-.7 1.9-.3.4-.5.9-.9 1.2-.2.2-.4.3-.6.5h-.2v-.3c.2-.8.6-2.3.2-3-.1-.1-.1-.1-.1 0 0 .4-.1.9-.4 1.2-.1.1-.2.1-.3 0 .1-.4.1-.8.1-1.3 0-1.2.3-2.2.7-3.4V53c0-.1 0-.1.1-.1.2-.1.4-.1.7-.1.4 0 .9 0 1.3.1zM30.9 68c.1 2.2 0 4.4.1 6.5.1 2 .2 3.9.2 5.8v11.3c0 .4 0 .7.1 1 0 .1.1.1.1.1.2 0 .3 0 .5.1 0 .2 0 .3-.2.4-.3.1-.7.2-1 .3l1.2-.3c.1 0 .2 0 .3.1.1.2.3.4.3.6l-1.5.2c-.1 0-.1 0-.1-.1-.1-.2-.3-.3-.5-.4-.1 0-.1 0-.1.1l-.1.3c0 .1-.1.1-.1.1L30 94h-.1l-.1.3-.1.1c-.2 0-.5-.1-.8-.3-.1-.1-.1-.2-.1-.5 0-.4.1-.7 0-1-.4-3.1-1.1-6-1.7-9-.3-1.4-.6-2.9-.7-4.3-.1-1.6 0-3.3.2-4.9v-1.1c-.2-1.3-.5-2.7-.8-4.1.4-.1.8-.2 1-.2 1.2-.1 2.4-.3 3.6-.7.1 0 .2-.1.3-.1 0-.2.1-.2.2-.2zm1.3 25.6c-.1 0-.1 0 0 0l-1.2.2 1.2-.2c0 .1 0 .1 0 0zM15.8 68.4c1.2.4 2.4.7 3.6.8 0 0 .3 0 .7.1.4 0 .7 0 1.1-.1-.2 1.4-.5 2.8-.9 4.1-.2.6-.3 1.2-.4 1.7-.2 1.4-.3 2.8-.5 4.2-.5 3.7-.8 7-1.1 9.9-.1 1.4-.2 2.9-.1 4.4 0 .1.1.2.2.2.3 0 .5.3.5.7h-.1c-.1 0-.2-.1-.1-.3 0 0 0-.1-.1-.1 0 0-.1 0-.1.1 0 .2-.2.4-.4.4-.4 0-.8 0-1.1-.1-.1 0-.2.1-.2.2l-.1.6c0 .1 0 .1-.1.1-.3.1-.5.1-.7 0 0-.6.2-1 .2-1.6 0-.6-.1-1-.1-1.4-.2-1.2-.4-2.5-.6-3.7-.4-2.6-.6-5.2-.7-7.9-.1-2.1.1-4.2.6-6.2.2-.7.3-1.4.4-2 .3-1.1.2-2.7.1-4.1zM53 71.4c-.2-.2-.4-.4-.6-.7-.1-.1 0-.2.1-.1.3.2.5.5.8.6.5.3 1 .5 1.6.8.6.3 1.1.7 1.5 1.2v.1c-1.1-.6-2.1-1.2-3.1-1.8-.1.1-.2 0-.3-.1zM84.6 93v.5c0 .1 0 .1-.1.1-.1-.1-.1-.1-.2-.1-.7-.1-1.4-.1-2.1 0-.1 0-.1 0 0-.1 0-.1.1-.1.1-.2v-1.9h2.2c.1 0 .2.1.2.2l-.1 1.5zM72 91.7c-.2.6-.2 1.2-.1 1.7 0 .1 0 .1.1.1.3 0 .4.3.3.8-1.4.4-2.7 1.1-3.9 2.1-.1.1-.2 0-.2 0 0-.1-.1-.1-.4-.1 0-.2.1-.4.3-.6.1-.1.4-.4.9-.7h.4c.1 0 .1 0 .1-.1s0-.2.1-.2l.1-.1c0-.1-.1-.2-.2-.2-.3-.1-.6-.3-.9-.3-.5 0-1 .1-1.6.3-.1 0-.1 0 0-.1.6-.4 1.1-.6 1.7-.7.1 0 .1 0 .1-.1.3-.2.4-.1.7-.1.1 0 .1 0 .1-.1l-.1-1.4c.1-.2.2-.2.4-.2.8-.2 1.5-.2 2.1 0zm-1.8 2.4c.2.1.2 0 .1-.1s-.2-.2-.3-.2c-.1-.1-.2-.1-.4-.1s-.4 0-.6-.1l.7.4h.1c.1 0 .3 0 .4.1z"/><path class="st5" d="M44.2 92.2c.2 0 .2.2.2.5l-.2-.5zM32 92.8v.3s0 .1.1.1l.2.2c-.1-.1-.2-.1-.3-.1l-1.2.3c.3-.1.7-.2 1-.3.2-.2.2-.3.2-.5z"/><path class="st1" d="M48.7 96.6c-.3.1-.5.2-.8.3-.3.1-.5.2-.8.4-1.4.8-2.7.9-4.3.8-.5 0-.9-.1-1.2-.3-.1-.1-.3-.1-.4-.1h-.5c.4-.1.6-.3.9-.6l.1-.1h.1l-.2.2v.1l.6.3c.7.1 1.4.1 2.2 0 .1 0 .2 0 .3-.1.1-.1.1-.2 0-.2-.7-.5-1.8-.8-2.6-.5v-.1l.1-.1H42.5c0-.1 0-.1.1-.2l.1-.1h.1v-.2c.7 0 1.3.1 2 .3.1 0 .1 0 .1-.1v-.1c0-.1-.1-.1-.1-.1l-1.3-.1c.1 0 .1 0 .1-.1.4 0 .9.1 1.3.2h.1c.1 0 .1-.1-.1-.2h-.1l-1.4-.3.1-.1c.2 0 .3.1.5.1.4 0 .9.1 1.3.4h.1v-.1c-.2-.3-.7-.4-1-.4-.2 0-.3 0-.5-.1v-.1c.3 0 .5-.1.8 0 .4.1.7.2 1 .3.3.1.3 0 .1-.2-.1-.1-.2-.2-.4-.2-.6-.2-1.2-.3-1.7-.1 0-.1.1-.2.2-.3.1-.1 0-.2 0-.2v-.2c.1.1.1.2.3.3v.2s0 .1.1.1.1 0 .1-.1h.1c.1 0 .1.1.2.1.4 0 .8.1 1.2.2.1 0 .2 0 .2-.1l.3-.3-1.4-.1s-.1 0-.1-.1c.1-.1.3-.1.4 0 .1 0 .2.1.3.1.2 0 .4 0 .6.1.1 0 .1 0 .1.1.1.1.1.1.2 0s.3-.2.4-.3c.3.1.6.2.8.4h.1c0-.3 0-.5-.1-.9-.1-.2-.1-.3-.1-.5.1.1.1.2.1.3 0 0 0 .1.1.1v.1c.1.2.1.4.1.7 0 .5.1 1 .4 1.5v.2c.2-.3.3-.1.4.1zm-.8-1.3c-.1-.1-.1-.1-.1 0-.4.2-.9.5-1.3.8-.1.1-.1.3-.1.4l.2.2c.1.2.2.2.3-.1.1-.5.4-.9 1-1.3.1.1.1.1 0 0zm-3.5 1.5c.1.1.2.1.3.1.1-.1.1-.1 0-.1s-.2-.1-.3-.1c-.1-.1-.1 0 0 .1zm.7.4s0-.1-.1-.2h-.2s0 .1.1.2h.2z"/><path class="st4" d="M84.6 93.1c0 .3.1.6.1.9.1.3.1.6.1.9 0 .5.1.9.1 1.4 0 .3.2.5.4.7.1.1.1.2.2.3.1.4.2.9.3 1.3-.6.2-1.2.3-2 .3h-2.3c-.1 0-.2.1-.3.3 0-1 .2-2 .5-3 0-.1.1-.3.1-.5v-2.1c0-.2.2-.3.4-.3-.1.1-.1.1 0 .1.7-.1 1.4-.1 2.1 0 .1 0 .2 0 .2.1.1.1.1 0 .1-.1v-.3zm-.1 1c0-.1 0-.1-.1-.1h-1.6c-.1 0-.1 0-.1.1v.1c0 .1 0 .1.1.1h1.6s.1-.1.1-.2zm-.9.6s-.2-.1-.4-.1-.4 0-.4.1c0 0 .2.1.4.1.3-.1.4-.1.4-.1zm-.6.3c.1 0 .1 0 .1-.1v-.1c-.1.1-.2.1-.1.2-.1 0-.1 0 0 0zm.3.3h-.4c-.1 0-.1 0 0 .1h.7s.1 0 .1-.1h-.4zm.7.5h.2-1.4s-.1 0-.1.1v.1h1.2c0-.2 0-.2.1-.2zm.2.3h-1.4 1.4c0 .1 0 .1 0 0zm.6.8c0-.1-.1-.1-.1-.1l-2.3.1c-.1 0-.1.1-.1.1 0 .1.1.1.1.1l2.3-.1c0 .1.1 0 .1-.1zM70.2 94.1c-.2 0-.3-.1-.5-.1h-.1l-.6-.4c.2.1.4.1.6.1.1 0 .2 0 .4.1.1.1.3.2.3.2.1.1.1.1-.1.1z"/><path class="st1" d="M32.6 94c.1 0 .1.1.1.2l-1.5.1c-.2 0-.2.1-.1.2l.3.3c.1.1.3.2.4.1l1-.2c0 .1.1.1.4.2l-1.2.3c-.1 0-.1.1-.1.1v.1l.4.3.1.1c.1.2.2.3.4.5h.1c.1-.2.2-.2.5-.3.2 0 .5-.1.7-.2.1 0 .2 0 .3.2l.1.1c.1.1.2.1.4.2.1 0 .2.1.3.2.2.2.3.4.5.5l.1.1c.4.1.6.2.7.5-.1-.2-.2-.3-.3-.4h-.1c-2 1.1-4.4.2-6.3-.6-.4-.2-.9-.3-1.4-.3-.1 0-.1 0-.1.1l-.3.3c0-.6.1-1.1.4-1.7v.1c0 .1.1.1.1.1s.1 0 .1-.1l.3-1.1c.3.2.6.2.8.3.1 0 .1.1.2.1.1.1.1.1.1 0v-.1l-.1-.1c-.1 0-.1 0-.1-.1l.1-.3c0-.1.1-.1.1 0l.1.1c.1 0 .1 0 .1-.1l.1-.3c0-.1.1-.1.1-.1.2.1.4.2.5.4 0 .1.1.1.1.1l1.6.1zm-1.7 1.3s-.1-.2-.2-.2c-.1-.1-.3-.1-.3-.1s.1.2.2.2c.2.1.3.1.3.1zm-.1 1.3h.2s.1 0 .1-.1v-.3c0-.2-.1-.4-.2-.4s-.2.2-.2.4l.1.4zm4.5.3c0-.2-.4-.5-1-.6-.6-.1-1.1 0-1.1.2s.4.5 1 .6c.6.1 1.1 0 1.1-.2z"/><path class="st1" d="m31 93.8 1.2-.2-1.2.3v-.1c-.1 0 0 0 0 0z"/><path class="st5" d="M28.8 93.7c0 .3 0 .4.1.5l-.3 1.1c0 .1-.1.1-.2.1l-.1-.1v-.1l.5-1.5z"/><ellipse transform="rotate(-77.202 53.992 93.728)" class="st2" cx="54" cy="93.7" rx=".1" ry=".2"/><path class="st5" d="M44.5 93.8v.3s.1.1.1 0c.2-.1.6-.2.8-.1h.2s.1-.1.2 0l1.3.2c-.1.1-.3.3-.4.3-.1.1-.2 0-.2 0l-.1-.1c-.2 0-.4 0-.6-.1-.1 0-.2 0-.3-.1h-.4s0 .1.1.1c-.2 0-.4 0-.6.2-.1.1-.2 0-.4-.1.2-.1.3-.3.3-.6z"/><path class="st1" d="M55.3 94c.1.1.1.2.1.3H53h.1l2.5-.1s.1 0 .1-.1V94c0-.1.1 0 .2.2V94.5c.1.1.1.2.1.3v.1c.2.4.4.7.6 1.1.1.1 0 .2.1.3 0 .1 0 .1.1.1.1.1.2.1.2.2h-.1l-.4-.3c-.4-.3-.8-.5-1.3-.4-.3-.1-.6-.1-.9 0 0 0-.1 0-.1.1s0 .1.1.1h.1c-.1.1-.1.2 0 .3.2.2 1 .2 1.4.2.1.1 0 .2-.4.1h-.9c-.1 0-.2.1-.3.2l-.1.2c-.1.1 0 .2.1.2 1 .1 2 .1 3.1 0 .2 0 .2-.1.2-.2.1.1.2.2.4.3-.2.1-.4.2-.6.2-1.3.1-2.4.1-3.5 0-.2 0-.4-.1-.6-.2-.6-.3-1.2-.7-1.7-1 0-.6.1-1.1.2-1.5l.3-.6c.1-.2.3-.3.5-.4.9-.4 2-.3 3-.2l-.2.3zm-2.2.9c-.1-.1 0-.1 0 0 .4 0 .7 0 1-.1.4-.1.9-.1 1.3 0 .3.1.3 0 .1-.2-.2-.2-.6 0-.8-.1h-.2c-.4.1-.8.2-1.3.1-.3 0-.3.1-.2.3.1.1.2.3.2.4 0 0 0 .1.1.1l.1.2c.1.1.1.1.1 0s0-.1.1-.1c.7-.1 1.4 0 2.1.2h.1v-.1c-.3-.4-1.6-.3-2.1-.3-.1 0-.1 0-.1.1s-.1.1-.1 0c-.1-.1-.1-.2-.1-.3V95c-.1.1-.2 0-.3-.1zm1 .1h-.5c-.1 0-.1 0-.1.1v.1s.1.1.1 0c.7-.2 1.3 0 2 .1.1 0 .1 0 .1-.1v-.1c0-.1-.1-.1-.2-.1-.4-.1-.9-.1-1.4 0zm-1.6 2.3c.1 0 0-.4-.2-.9s-.4-.8-.5-.8c-.1 0 0 .4.2.9s.5.9.5.8zm3.4-1.3c-.5-.2-1.3-.2-1.9-.1-.1 0-.2 0-.2.1l-.1.1c0 .1 0 .1.1.1.7-.1 1.4-.1 2.2.1 0 0 .1 0 .1-.1v-.1c-.1-.1-.2-.1-.2-.1z"/><path class="st2" d="M82.8 94h1.6c.1 0 .1 0 .1.1v.1c0 .1 0 .1-.1.1h-1.6c-.1 0-.1 0-.1-.1v-.1s0-.1.1-.1z"/><path class="st1" d="M19.1 94.5c0 .1-.1.2-.3.3-.1.1-.2.1-.3 0-.5-.1-.9 0-1.2.1-.1 0-.1.1-.1.2s0 .1.1.1l1.9.1h.1c0 .1.1.2.1.3l-2.2-.1c-.1 0-.1 0-.1.1v.2c.1.1.1.1.2.1h2v.1s0 .1.1.1c0 0 .1 0 .1.1h-2c-.1 0-.1 0-.1.1l.1.1c.7 0 1.3.1 1.9.1 0 0 .1 0 .1-.1.1.1.1.2.1.3-.6-.1-1.2-.1-1.8 0 0 0-.1 0-.1.1l.1.1c.1.1.2.1.2.1.6 0 1.1 0 1.7.1h.1l.3.3c-.8-.1-1.5-.1-2.2 0-.1 0-.1 0-.1.1l.2.6c0 .1.1.1.2.1.7 0 1.4 0 2.1-.1 0 0 .1 0 .1-.1v-.2h.1v.1l.9 1c-.7-.2-1.4-.3-2.1-.2-.7.1-1 .1-1 .1-.8 0-1.5 0-2.2-.1-.1 0-.1-.1-.1-.2v-.1c.1-.2.2-.4.1-.6-.1-.3-.1-.5-.1-.8v-1.1c.2.1.5.1.7 0 .1 0 .1-.1.1-.1l.1-.6c0-.1.1-.2.2-.2.3.1.7.1 1.1.1.3 0 .4-.1.4-.4 0 0 0-.1.1-.1 0 0 .1 0 .1.1.1-.4.1-.3.3-.2zm-1.6 2-.4.2c-.2.1-.3.3-.3.3l.4-.2c.2-.1.3-.3.3-.3z"/><path class="st7" d="M32.7 94.1c0 .2.1.3.2.4l.1.1s0 .1-.1.1l-1 .2c-.2 0-.3 0-.4-.1l-.3-.3c-.1-.1-.1-.2.1-.2l1.4-.2zm-.9.4c-.1-.1-.3-.1-.4 0-.1 0-.1 0 0 .1.2-.1.3-.1.4-.1.1 0 .1 0 0 0 .1 0 .1 0 0 0 .1 0 .1 0 0 0z"/><path class="st2" d="M69.1 94.4c0 .1-.1.2-.3.2-.1 0-.1 0 0 .1v.2l-.1.1c-.2 0-.3.1-.4.2-.3.3-.5.6-.7.7-.2.2-.4.2-.6 0 0-.3.2-.5.5-.6.1 0 .1 0 .1-.1.2-.3.5-.4.8-.4.1 0 .1 0 .2-.1v-.2h-1c-.2 0-.2 0 0-.1.2-.2 1.3-.5 1.5 0z"/><path class="st4" d="m72.3 94.3.1 2.9-.1-.1s-.1-.1-.1 0c-2.3.7-4.2 1.3-6.4.9l-1.5-.3h-.1s-.1.1 0 .2c0-.3 0-.5.2-.6.7-.6 1.5-1 2.3-1.3h.3c.1.1.3.1.4.1.2 0 .3.1.4.3 0 .1.1.1.2.1s.1-.1.1-.1 0-.1-.1-.1l-.2-.1c.2 0 .3 0 .4.1 0 .1.1.1.2.1 1.2-1 2.5-1.7 3.9-2.1z"/><path class="st7" d="M55.4 94.2c.1.1.1.1 0 0l.1.1s0 .1-.1.1l-2.4.1h-.1l2.5-.3z"/><path class="st1" d="M69.4 94.2c.1 0 .2.1.2.2 0 0 0 .1-.1.1s-.1.1-.1.2 0 .1-.1.1h-.4c-.5.3-.8.6-.9.7-.2.2-.3.3-.3.6l.2.1s.1 0 .1.1c0 0 0 .1-.1.1s-.1 0-.2-.1c-.1-.2-.2-.3-.4-.3s-.3-.1-.4-.1c0-.1 0-.1.1-.1.2.1.4.1.6 0l.7-.7c.1-.1.2-.2.4-.2.1 0 .1 0 .1-.1v-.2c-.1-.1 0-.1 0-.1.2 0 .3-.1.3-.2.1.1.2.1.3-.1z"/><path class="st7" d="M29.8 94.3s0 .1.1.1.1 0 .1.1v.1c0 .1 0 .1-.1 0s-.1-.2-.1-.3zM44 94.3h.2c.1.2.2.2.4.1s.4-.2.6-.2l1.4.1-.3.3c0 .1-.1.1-.2.1-.4-.1-.8-.1-1.2-.2-.1 0-.1 0-.2-.1h-.1c0 .1-.1.1-.1.1l-.1-.1v-.2c-.3.4-.4.3-.4.1zm1.4.3c-.2-.1-.4-.1-.6 0-.1 0-.1.1 0 .1.3.1.6-.1.8.1l.1.1h.2c.1 0 .1-.1 0-.1-.1-.1-.3-.1-.4-.1 0-.1 0-.1-.1-.1zM19.2 94.4c0 .2.1.3.1.5H19c-.1-.1-.1-.2-.1-.3.1 0 .2-.1.3-.2-.1 0-.1 0 0 0z"/><path class="st5" d="M31.8 94.5c.1 0 .1 0 0 0 .1 0 .1 0 0 0 .1 0 .1 0 0 0h-.4c-.1 0-.1 0 0-.1.2 0 .3 0 .4.1zM45.6 94.6c.2 0 .3 0 .4.1.1 0 .1.1 0 .1h-.2s-.1 0-.1-.1c-.2-.2-.5 0-.8-.1-.1 0-.1-.1 0-.1.2-.1.4 0 .6 0 0 .1 0 .1.1.1z"/><path class="st7" d="m53.1 94.9.3.3s.1.1 0 .1c0 .1 0 .2.1.3h.1c0-.1.1-.1.1-.1.4-.1 1.8-.2 2.1.3v.1h-.1c-.7-.2-1.4-.2-2.1-.2-.1 0-.1 0-.1.1s0 .1-.1 0l-.1-.2s0-.1-.1-.1c0-.2-.1-.3-.2-.4-.2-.2-.1-.3.2-.3.4 0 .8 0 1.3-.1h.2c.3.1.6-.1.8.1.3.2.2.2-.1.2-.4-.1-.9-.1-1.3 0-.3-.1-.6-.1-1-.1 0-.1-.1-.1 0 0z"/><ellipse transform="scale(.99996) rotate(-88.7 83.221 94.668)" class="st2" cx="83.2" cy="94.7" rx=".1" ry=".4"/><path class="st5" d="M18.8 94.7c0 .1.1.2.1.3-.1 0-.3-.1-.4-.2.1 0 .2 0 .3-.1z"/><path class="st2" d="M18.5 94.8c.1.1.3.2.4.2h.3c.1 0 .1.1.1.2h-.1l-1.9-.1c-.1 0-.1 0-.1-.1s0-.2.1-.2c.3-.1.7-.1 1.2 0zM83 95s-.1 0 0 0c-.1 0-.1 0 0 0 0-.1 0-.2.1-.2h.1c-.1.2-.2.2-.2.2z"/><path class="st7" d="M33.3 94.9c.2.1.3.1.3.1.3.3.2.4-.2.4-.2 0-.4 0-.5.1h-.1s-.1 0 0-.1c0-.1 0-.1-.1-.1 0 0-.1 0-.1.1 0 0-.1.1 0 .2v.1c0 .1 0 .1.1.1.2 0 .4-.1.6-.1.3-.1.6 0 .9.1-.2.1-.4.2-.7.2-.2 0-.3.1-.5.3h-.1c-.2-.1-.3-.3-.4-.5 0-.1-.1-.1-.1-.1l-.4-.3v-.1h.1l1.2-.4zM54.1 95c.5-.1 1-.1 1.4.1.1 0 .1.1.2.1v.1c0 .1 0 .1-.1.1-.7-.2-1.3-.3-2-.1h-.1s-.1-.1 0-.1c0-.1 0-.1.1-.1.2-.1.3-.1.5-.1z"/><ellipse transform="rotate(-57.201 30.683 95.134)" class="st5" cx="30.7" cy="95.1" rx=".1" ry=".3"/><path class="st7" d="M43.5 95.5c.2-.2.3-.3.3-.4.5-.1 1.1-.1 1.7.1.2.1.3.2.4.2.2.2.1.3-.1.2-.3-.1-.7-.2-1-.3-.3-.1-.5 0-.8 0 0 0-.1 0 0 .1.2 0 .3.1.5.1.3 0 .8.1 1 .4v.1h-.1c-.4-.2-.9-.4-1.3-.4-.3 0-.4-.1-.6-.1z"/><path class="st2" d="M83.3 95.3H83.6v.1h-.7v-.1c.1-.1.3 0 .4 0z"/><path class="st7" d="M19.4 95.5c0 .1 0 .2-.1.2h-2c-.1 0-.2 0-.2-.1-.1-.1-.1-.1 0-.2 0-.1.1-.1.1-.1l2.2.2zM47.9 95.4c-.6.3-.9.7-1 1.3 0 .2-.1.2-.3.1l-.2-.2c-.1-.1-.1-.3.1-.4.4-.3.8-.6 1.3-.8 0-.1.1-.1.1 0 .1 0 .1 0 0 0z"/><path class="st2" d="M83.9 95.8c-.1 0-.1.1-.2 0h-1s-.1 0 0-.1l.1-.1h1.4-.2l-.1.2z"/><path class="st7" d="m43.4 95.7 1.4.3h.1c.1.1.2.2.1.2h-.1c-.4-.2-.9-.2-1.3-.2l-.3-.1c-.1 0-.1-.1 0-.1 0-.1 0-.2.1-.1z"/><ellipse transform="rotate(-22.403 52.168 96.457)" class="st7" cx="52.2" cy="96.5" rx=".1" ry=".9"/><path class="st5" d="M30.8 96.6c0-.1 0-.1 0 0l-.1-.4c0-.2.1-.4.2-.4s.2.2.2.4v.3s0 .1-.1.1h-.2z"/><path class="st7" d="M55.9 96c.1 0 .1.1.2.1v.1H56c-.8-.2-1.5-.2-2.2-.1-.1 0-.1 0-.1-.1 0 0 0-.1.1-.1.1-.1.1-.1.2-.1.6 0 1.3-.1 1.9.2zM19.5 95.9l.1.2s0 .1-.1.1c-.5 0-1.2-.1-1.9-.1 0 0-.1 0-.1-.1s0-.1.1-.1h1.9zM43.5 96l1.2.3c.1 0 .1.1.1.1v.1c0 .1 0 .1-.1.1-.7-.2-1.3-.4-2-.3.3-.2.5-.3.8-.3z"/><path class="st2" d="M82.8 96.1h1.3-1.3c0 .1 0 .1 0 0z"/><ellipse transform="rotate(-79.298 34.296 96.666)" class="st7" cx="34.3" cy="96.7" rx=".4" ry="1.1"/><path class="st5" d="M55 96.3c-.2.1-.5.1-.7.1h-.1c-.1 0-.1 0-.1-.1 0 0 0-.1.1-.1.2 0 .5 0 .8.1z"/><path class="st7" d="M55 96.3c.5 0 1 .1 1.3.4.1.2-.2.2-.7.1-.3 0-1.1 0-1.4-.2-.1-.1-.1-.2 0-.3.3.1.5.1.8 0zM19.6 96.4c.1.1.2.1.2.2 0 0 0 .1-.1 0-.6-.1-1.1-.1-1.7-.1-.1 0-.2 0-.2-.1l-.1-.1v-.1c.7.1 1.3.1 1.9.2zM36.4 97.6l.1.4c.1.7-.3.7-.8.8-.4.2-.7.2-.8.2-.8 0-1.5 0-2.2-.1-.1-.1-.2-.2-.5-.1-.2-.1-.4-.1-.5-.1-.4-.1-.8-.3-1.1-.5-.4-.2-.7-.3-1-.3-.4-.1-.7-.1-1.1-.2-.3-.1-.5-.4-.4-.9l.1-.3.1-.1c.5 0 .9.1 1.4.3 1.9.8 4.4 1.7 6.3.6h.1c.1 0 .2.1.3.3z"/><ellipse transform="rotate(-37.5 17.16 96.734)" class="st7" cx="17.2" cy="96.7" rx=".4" ry=".1"/><path class="st7" d="M15.9 96.6c0 .3 0 .6.1.8.1.3 0 .4-.1.6 0 .1 0 .2.1.2h.1c.7.1 1.4.1 2.2.1 0 0 .3 0 1-.1.8-.1 1.5 0 2.1.2.3.6.1 1.1-.7 1.4h-3.2c-.1-.2-.3-.2-.6-.1-.6-.1-1.3-.4-1.3-1v-1.1c.1-.3.2-.7.3-1zM48.7 96.6c.1.2.1.3.1.5-.1.3-.5.5-.8.6-.8.3-1.5.7-2 1.4 0 .1-.1.1-.3.2-.2.1-.7.2-1.4.3h-1.2.3c-.6 0-1.2-.1-1.8-.2-.4-.1-1-.2-1.1-.7 0-.3 0-.6.2-.9h.5c.2 0 .3 0 .4.1.3.2.7.3 1.2.3 1.6.1 2.9 0 4.3-.8.2-.1.5-.3.8-.4.3-.2.5-.3.8-.4z"/><path class="st5" d="M44.4 96.8c-.1-.1-.1-.1.1-.1.1 0 .2 0 .3.1.1 0 .1.1 0 .1-.2 0-.3 0-.4-.1z"/><path class="st7" d="m41.9 97.1.4-.2c.8-.3 1.9 0 2.6.5.1.1.1.2 0 .2-.1.1-.2.1-.3.1-.8.1-1.5.1-2.2 0-.2 0-.4-.2-.6-.3-.1 0-.1-.1 0-.1l.1-.2z"/><path class="st5" d="m56.3 96.7.4.3h-1.5c.4 0 .5 0 .4-.1.5.1.8 0 .7-.2z"/><path class="st7" d="M51.2 96.8c.6.3 1.2.6 1.7 1 .2.1.4.2.6.2 1 .1 2.2.2 3.5 0 .2 0 .4-.1.6-.2.3.3.4.6.3 1-.1.3-.4.5-.7.5-1.2.3-3.4.4-4.4-.4-.5-.4-.9-.8-1.5-1.4-.2-.3-.2-.5-.1-.7z"/><path class="st2" d="m82.3 96.9 2.3-.1c.1 0 .1.1.1.1 0 .1-.1.1-.1.1l-2.3.1c-.1 0-.1-.1-.1-.1 0-.1.1-.1.1-.1z"/><path class="st7" d="M20.1 96.9c0 .1 0 .1 0 0 .1.1.1.1 0 .1-.2 0-.3.1-.5 0-.4-.1-.8-.1-1.2 0 0 0 0 .1.1.1l2 .1c0 .1.1.2 0 .2l-.1.1c-.7 0-1.5.1-2.1.1-.1 0-.1 0-.2-.1l-.2-.5c0-.1 0-.1.1-.1.6-.1 1.3-.1 2.1 0z"/><path class="st5" d="M20.1 96.9s0 .1 0 0l.3.4-2-.1s-.1 0-.1-.1H20c.1-.1.1-.1.1-.2 0 .1 0 .1 0 0z"/><ellipse transform="rotate(-56.399 44.963 97.107)" class="st7" cx="45" cy="97.1" rx=".1" ry=".2"/><path class="st7" d="M55.2 97h1.6l.4.4c0 .1-.1.2-.2.2-1 .1-2.1 0-3.1 0-.1 0-.2-.1-.1-.2l.1-.2c.1-.1.2-.2.3-.2h1z"/><path class="st2" d="M72.4 97.2c0 .1 0 .2-.2.3-.7.3-1.5.5-2.2.9-.5.2-1 .5-1.6.6-1.3.3-2.6.3-3.8 0-.5-.1-.5-.6-.4-1v-.2h.1l1.5.3c2.2.4 4.2-.2 6.4-.9h.2z"/><path class="st5" d="M36.4 97.6c.1.2.1.3.1.4l-.1-.4zM31.6 98.7c.2 0 .4 0 .5.1H32c-.1 0-.2 0-.4-.1z"/><path class="st2" d="M85.8 98.7c.1.3 0 .5-.2.7-.9.6-2 .5-3.1.5-.6 0-1.1-.2-1.4-.6.1-.2.2-.3.3-.3h2.3c.9 0 1.5-.1 2.1-.3zM32.1 98.8c.1 0 .1 0 0 0 .3-.1.5 0 .6.1l-.6-.1z"/><path class="st5" d="M44.3 99.4c-.3.1-.6.1-.9.1h-.3c.4-.1.8-.1 1.2-.1z"/><path class="st2" d="M16.9 99.7c.3-.1.5-.1.6.1-.2 0-.4 0-.6-.1z"/><path class="st5" d="M17.6 99.8h3.2c-.8.2-1.7.2-2.5.1h-.1c-.3 0-.5 0-.6-.1z"/></svg>